<?xml version="1.0" encoding="utf-8"?>
<!-- Generator: Adobe Illustrator 20.1.0, SVG Export Plug-In . SVG Version: 6.00 Build 0)  -->
<svg version="1.1"  xmlns="http://www.w3.org/2000/svg" xmlns:xlink="http://www.w3.org/1999/xlink" x="0px" y="0px"
	 viewBox="0 0 1200 837.6" style="enable-background:new 0 0 1200 837.6;" xml:space="preserve">
<style type="text/css">
	.st0{fill:#D8D8D8;}
	.st1{fill:none;stroke:#D8D8D8;stroke-miterlimit:10;}
</style>
<g >
	<path id="CA-AB" class="st0" d="M467.7,325.7c-38.7-10.2-34.5-8.7-36.8-13.8l-1.9-4.3l1.7-8c1.7-8.4,1.5-10.5-0.7-14.9
		c-0.7-1.5-2.9-5.7-4.7-9.3c-1.8-3.6-4-8.7-4.8-11.2s-2.5-5.9-3.6-7.7c-1.1-1.8-2.3-4.4-2.5-5.8c-0.3-1.5-1.4-3.6-2.5-5
		s-2.1-2.6-2.1-3.2c0-0.4-0.7-1.8-1.5-2.9c-0.8-1.2-1.8-4.1-2.2-7c-0.4-3-1.2-5.8-2.3-7.5c-1-1.4-2.1-3.5-2.5-4.6s-1.9-2.6-3.3-3.6
		c-2.5-1.7-3.5-4.3-1.8-5.3c0.4-0.3,0.7-2.2,0.7-4.4c0-3.9,4.7-17.5,37-106.1l2.9-8l16,5.3c8.8,2.9,22.1,7.2,29.7,9.3
		c7.6,2.2,20.9,6.1,29.6,8.7c8.7,2.5,15.9,4.7,16,4.8c0.6,0.6-2.1,11.1-2.9,11.6c-0.4,0.3-1.7,0.7-2.5,1c-1.8,0.6-9.4,8-9.4,9.3
		c0,0.4,1.1,1.2,2.5,1.9c2.5,1.1,2.6,1.1,4.7-0.3c1.1-0.8,2.2-2.1,2.5-3c0.3-0.8,0.6-1.2,0.8-1.1c0.3,0.3-1,5.7-2.5,12.2
		c-3.7,15.3-7.6,31.9-13.1,54.7c-2.3,10.1-5.1,21.7-6.1,25.6c-4.8,20-9.1,38-11.5,47.7c-12.3,51.5-11.2,47.3-11.9,47.1
		C478,328.5,473.3,327.1,467.7,325.7z"/>
	<g id="CA-BC">
		<path class="st0" d="M314.3,288c-4.6-2.9-11.6-12-11.6-15.2c0-1.8-0.4-2.3-2.1-3c-2.1-0.8-3.7-3.6-4.7-8c-0.3-1.1-1.1-3.3-2.1-4.7
			c-0.8-1.4-2.2-4-2.9-5.8c-0.7-1.8-2.5-5.5-4.3-8.2c-1.8-3-3.3-6.6-3.9-9.4c-0.6-2.5-1.4-5.5-1.9-6.9c-1-2.2-0.8-2.5,1.1-4.1
			c1.1-1,2.8-1.8,3.6-1.8c1.5,0,5.8,4.1,12.7,12.3c2.2,2.5,4.3,5,4.7,5.4c0.4,0.4,1.9,2.2,3.2,4c1.4,1.8,2.6,3.5,2.9,3.6
			c1,0.8,2.9,7.3,3.3,11.5c0.4,4.2,1,5.1,4.1,9.3c4.1,5.5,4.6,6.4,5.3,11.9c0.3,2.3,1,5.5,1.5,7c0.6,1.5,0.8,2.9,0.6,3.2
			C322.7,290.2,316.6,289.5,314.3,288z"/>
		<path class="st0" d="M428.7,315.2c-0.7-0.3-15.5-4.8-27.1-8.4c-4-1.2-46.2-17-63.6-23.8c-3-1.1-6.4-2.5-7.6-2.9
			c-2.8-1-3.2-1.8-3.2-5.1c0-1.9-0.6-3.2-1.5-4c-4.3-3.5-5.7-5.3-5.7-6.6c0-0.8-0.3-1.5-0.7-1.5c-1.8,0-4.3-3.9-4.7-7.2
			c-0.7-5.4-3.2-10.1-7.3-14.4c-3.7-3.9-3.9-3.9-3.5-7.5c0.4-2.9,0.3-3.5-0.7-3.5c-0.6,0-1.2-0.3-1.2-0.6c-0.1-0.3-1.8-1.5-3.6-2.5
			c-1.9-1.1-3.5-2.3-3.5-2.9c0-0.6-0.3-1.5-0.4-2.3c-0.4-1.9-0.4-3.2-0.4-11.1c0.1-6.5,0.1-6.6,2.2-8.6c2.1-1.7,2.1-2.1,1.4-4.1
			c-0.4-1.2-0.8-3.6-0.8-5.1c0-2.2-0.7-3.9-2.9-7c-2.5-3.5-2.9-4.6-2.5-6.6c0.3-1.4,1.1-3,1.9-3.7c1.7-1.4,1.5-2.5-1-7.5
			c-1.2-2.5-1.5-4.3-1.5-12.3c0-9,0.1-9.4,1.9-11.2c1-1,3.6-2.5,5.7-3.3c5.1-1.9,9.3-5.7,9.3-8.4c0-2.9,1.5-6.2,4.3-9.3
			c2.1-2.2,2.2-3,2.2-6.9c0-4-0.3-4.7-2.2-6.4c-2.5-2.2-6.8-10.4-8-15.1c-0.7-2.8-0.6-4.3,1.1-11.3c1.8-7.2,1.8-8.6,1.1-12.3
			c-0.4-2.2-1-7.2-1.1-10.9c-0.3-3.7-0.6-7.6-0.7-8.4c-0.1-0.8-0.6-2.8-0.7-4.4c-0.3-1.5-1.4-6.9-2.5-11.9s-2.3-9.8-2.5-10.6
			c-0.3-1-1.4-2.1-3-2.6c-5.1-2.1-5.8-2.1-7.2,0.3c-1,1.7-2.5,2.6-5.7,3.7c-2.3,0.8-5.7,2.2-7.2,2.9c-1.5,0.7-2.9,1.4-3,1.4
			s0.1-1.1,0.4-2.3c1-3.6,0.4-12.3-1.1-14.4c-1.5-2.2-1.2-9,0.3-8.7c0.6,0.1,7.7,4.7,16.2,10.2c22.8,15.1,47.8,30.1,60,36.5
			c5.9,3.2,11.2,5.9,11.6,6.2c1.9,1.4,24.2,12.7,32.5,16.4c5.1,2.3,16.4,7,24.9,10.2c8.6,3.3,15.8,6.2,16,6.5s0.3,1.2-0.1,2.2
			s-4.1,11.3-8.4,22.9s-8.8,24.7-10.4,28.9c-16.7,45.5-20.2,55.8-20.2,59.4c0,2.2-0.4,4.4-1.1,5.3c-1.5,2.2-0.7,5.4,2.1,7
			c3.3,2.2,7.7,10.2,8.3,15.3c0.3,2.8,1.1,5.3,2.5,7.3c1.1,1.8,2.1,3.6,2.1,3.9c0,0.4,0.8,1.5,1.7,2.5c1,1,2.1,3.5,2.6,5.3
			c0.6,1.9,1.2,3.6,1.5,3.9c1,0.6,3.9,6.8,4.6,9.3c0.3,1.1,2.9,6.9,5.7,12.6c3,6.1,5.1,11.3,5.1,12.7c0,1.2-0.6,5.3-1.2,9
			c-1.2,7-1.1,9.9,0.8,12.9C430.1,315,429.9,315.5,428.7,315.2z"/>
		<path class="st0" d="M263.1,179c-2.9-6.8-4-14.8-3.6-26.4c0.3-6.6,0.7-10.8,1.2-11.5c0.6-0.6,1-1.7,1-2.2c0-1.9,3.2-1.8,6.1,0.1
			c3.5,2.3,8,6.9,8,8c0,0.6-2.9,3.9-6.5,7.6c-7.6,7.9-7.7,8.3-4.7,19.2c1,3.6,1.8,7,1.8,7.7C266.6,184,264.8,182.6,263.1,179z"/>
	</g>
	<path id="CA-MB" class="st0" d="M607.6,136.4L607,141c-0.3,2.5-0.6,5.1-0.7,5.7c-0.1,0.6-0.4,2.9-0.7,5c-0.3,2.2-0.6,4.4-0.7,5
		c-0.1,0.6-0.7,5.3-1.5,10.4c-1.1,8.8-1.1,9.4,0,11.5c1.2,2.1,1.1,2.1-0.8,4.7c-1.1,1.4-2.3,3.2-2.9,3.7c-0.4,0.7-1.1,5.4-1.2,10.5
		c-0.3,5.1-0.6,10.6-0.7,12.3c-0.1,1.7-0.4,5.8-0.7,9.4c-0.3,3.6-0.6,8.4-0.8,10.9c-0.7,9.9-1,14.1-1.5,19.5
		c-0.3,3.2-0.6,7.5-0.7,9.4c-0.1,1.9-0.6,6.9-0.7,10.9c-0.3,4-0.6,8.6-0.7,10.1c-0.1,1.7-0.4,6.4-0.7,10.5s-0.6,8.7-0.7,10.1
		c-0.1,1.4-0.4,6.2-0.7,10.9c-0.3,4.6-0.6,8.8-0.7,9.4c-0.4,1.9-1.4,18.4-1.4,23.1l-0.1,4.7l4.4,0.4c6.9,0.7,13.5,1.5,15.5,1.8
		c1,0.1,3.6,0.4,5.8,0.7c4.3,0.4,6.6,0.7,13,1.5c2.2,0.3,7,0.7,10.9,1c3.7,0.3,10.2,0.6,14.2,0.7l7.3,0.3l0.4-3.5
		c0.3-1.9,0.6-7.3,0.8-12.2c0.3-4.7,0.6-10.9,0.7-13.7c0.1-2.8,0.6-9.9,0.7-15.9c0.8-20.6,1-22.8,2.8-25.6c0.8-1.5,5.9-7.3,11.5-13
		c5.4-5.7,11.2-12,13-14c1.8-1.9,3.5-4,3.9-4.4c6.9-7.9,10.2-11.6,14.1-16.2c2.5-3,6.8-7.9,9.4-10.9c2.8-3,6.1-6.8,7.5-8.3
		s4.1-4.6,6.1-6.8s3.6-4.3,3.7-4.7c0-0.8-3.7-2.3-7-2.9c-5-0.8-6.4-1.2-7.2-2.5c-0.7-1-1.8-1.2-5.3-1.1c-2.3,0.1-4.6,0.4-4.8,0.8
		c-0.6,0.8-9,1.9-10.5,1.2c-0.7-0.3-0.8-0.8-0.6-1.9c0.6-1.5,0.4-2.3-1.7-12c-1.5-6.9-1.8-9-2.3-13c-0.6-4.6-2.3-5.9-9.9-7.6
		c-4.8-1-6.5-1.7-7.2-2.9c-0.8-1.7-0.8-7.3,0.1-15.1l0.6-4.8l-3.9-0.1c-2.1-0.1-4.1-0.1-4.4-0.3s-3-0.4-5.9-0.7
		c-3-0.3-5.9-0.7-6.5-0.8s-3.3-0.4-6.1-0.7s-5.7-0.7-6.5-0.8s-3.5-0.4-5.8-0.7s-6.9-0.7-10.1-1.1s-7.7-0.8-10.1-1.1
		s-5.8-0.6-7.7-0.8L607.6,136.4z M628.2,260.5c2.8,0,4.7,1.2,6.1,4.1c0.8,1.7,1.8,3.2,2.1,3.3c1.4,1,4.7,9.8,4,10.6
		c-0.4,0.7,0.8,4.6,2.3,7.2c0.6,0.8,0.8,3.3,0.7,5.4c-0.1,4,2.2,12.9,4.6,16.7c1,1.7,1.2,4.1,1.5,9c0.3,6.8,0.1,6.9-1.5,7.2
		c-1,0.1-2.3,1-3,1.9c-1.5,1.9-2.9,2.2-4.4,0.7c-1.2-1.2-0.8-6.4,0.7-8.7c0.6-0.8,1.1-2.3,1.2-3.5c0.3-1.1,0.8-2.5,1.2-3.2
		c1.5-1.8,1.4-3.5-0.1-4.4c-1.1-0.7-1.5-0.7-2.3,0.6c-1,1.7-2.8,1.9-2.8,0.6c0-0.4,0.4-1.9,0.8-3.2c1.9-5.4-1.2-10.1-5.8-8.4
		c-1.8,0.7-2.3,0.6-3.6-0.8c-0.8-0.8-1.9-3-2.5-5c-0.7-1.9-1.9-4.4-2.9-5.8c-1.2-1.7-1.7-3-1.5-4.6c0.3-1.9,0-2.3-3.2-4
		c-4.7-2.5-6.6-1.8-6.8,2.5c-0.1,1.7-0.3,4.6-0.4,6.5c-0.7,9.9-0.7,9.9,2.3,12.3c6.4,5,6.9,5.7,7.9,10.1c0.6,2.3,1,5.5,1,6.9
		c0,1.5,0.8,4.3,1.9,6.2c2.3,4.7,2.5,8.4,0.3,9.1c-2.3,0.7-3.3,0.6-3.9-0.4c-0.6-0.8-2.5-9.9-3.9-17.8c-0.8-4.4-1.8-5.8-6.9-9.1
		c-4-2.6-5.9-4.6-5.8-5.9c0.1-0.6,0.1-1.5,0.3-2.3c0.1-0.8,0.6-1.8,1.1-2.3c0.7-0.7,1-2.6,1-5.8c0-4.8,0-4.7-2.8-6.4
		c-3-1.8-4.3-3.3-4.3-6.1c0-1.5,0.4-1.8,1.8-1.8c2.6,0,3.6-2.3,1.8-4.6c-0.8-1-1.5-2.2-1.5-2.6c0-1,3.5-2.3,5.3-2.3
		c1.8,0.1,5.5,3.6,5.5,5.1c0,0.7,0.7,1.9,1.7,2.8l1.7,1.5l1-2.6c1.7-4.4,4.6-8.2,6.9-8.7C626.3,260.6,627.3,260.5,628.2,260.5z"/>
	<path id="CA-NB" class="st0" d="M1023.8,389.4c-1.7-0.4-3.6-2.6-4.8-5.5c-0.4-1.1-1.7-2.2-2.5-2.3c-2.9-0.7-7.6-12.9-7.6-19.8
		c0-2.3-0.4-3.6-1.7-4.8c-2.9-2.6-6.6-4.6-9-4.6H996l-0.3-4.6c-0.1-2.5-0.1-4.7,0-5s2.2-0.6,4.7-0.6c5.3-0.1,8.3-1,11.3-3.7
		c1.4-1.2,4.3-2.5,7.6-3.5c5-1.4,5.5-1.4,8-0.4c2.5,1.1,2.8,1,4.1-0.4c2.9-3.2,11.3-5.7,11.3-3.3c0,0.6-0.6,1.8-1.1,2.6
		c-1.5,2.6-1.4,8.8,0.3,10.9c0.7,1,1.7,2.8,1.9,4.1c0.3,1.5,1.8,3.6,3.9,5.7c3.2,3,3.5,3.2,7.7,3.2c2.3,0,4.6,0.3,4.8,0.4
		c0.3,0.3-1.2,2.1-3.2,4.1c-1.9,2.1-4.4,5.5-5.5,7.6c-2.5,5.4-11.6,14.5-14.4,14.5c-1.7,0-2.2,0.6-3,2.1
		C1033,389.2,1028.3,390.7,1023.8,389.4z"/>
	<path id="CA-NL" class="st0" d="M1104.3,310.1c-1.9-2.5-1.9-5.7,0.1-8.4c2.2-3,2.5-6.6,0.6-7.3c-1.9-0.6-1.8-2.1,0.1-5.1
			c1.4-2.2,1.5-3.2,1.1-8.7c-0.7-10.1-0.6-22,0.7-33.7c0.1-0.8,0.4-4,0.7-7.2c0.7-6.6,1.9-9.1,7.2-13c2.9-2.2,3.6-2.5,4.6-1.7
			c2.6,2.2,3.3,4.8,2.9,13.7c-0.1,4.7-0.6,8.8-0.7,9.1c-0.3,0.4-0.6,2.5-0.8,5l-0.4,4.3l1.8-2.2c1-1.1,1.8-2.3,1.8-2.6
			c0.1-1.1,3-1.4,5.5-0.6c2.6,1,2.8,1.1,2.5,4.8l-0.1,2.3h3.6c1.9,0,3.7-0.3,4-0.7s1.9-1,3.9-1.7c1.9-0.6,5.1-1.7,7-2.6
			c3.6-1.7,6.9-1.8,9.8-0.1c1.7,0.8,2.2,4.7,1.1,6.5c-0.7,1.1-0.7,1.7,0.6,2.9c1.2,1.2,1.9,1.4,5.1,0.8c4.6-0.7,5.4-0.4,5.4,1.9
			c0,2.1-1.5,4.7-3.9,6.8c-0.8,0.7-1,1.2-0.6,1.2s0.8,1.1,0.8,2.5s0.3,3,0.4,3.6c0.6,1.2,1.8,1.5,1.8,0.3s3.6-5.7,4.7-5.7
			c0.6,0,1.4,1.2,1.9,2.9c1,3.3,1.9,3.6,5,1.2c1.1-0.8,2.3-1.2,2.6-1s0.7,2.6,0.7,5.4c0.1,2.6,0.3,6.1,0.3,7.5
			c0.1,3.9-2.8,8.2-5.8,8.4c-1.8,0.1-2.3-0.3-3.2-1.7c-1-2.2-1.5-2.2-2.8,0c-1.9,3.6-3.6,1.4-4.4-6.2c-0.7-5.7-1.5-7.7-2.9-7.7
			c-0.4,0-0.7,1.1-0.7,2.6c0,2.1-0.6,3.2-2.9,5.3c-2.5,2.5-2.9,3.2-3.6,7.9c-1,7-2.6,8.8-8.4,9c-4.8,0.1-5.3-1-1.5-4.6
			c2.1-1.9,2.5-2.9,2.5-5.3c0-2.6-0.1-2.9-1.5-2.1c-2.8,1.5-5.9,2.1-6.8,1.4s-2.1-0.1-9.4,4.3c-2.2,1.2-4.8,2.5-5.9,2.6
			s-3.2,0.6-4.4,0.7c-1.4,0.3-5.8,1.8-9.8,3.3c-4,1.7-7.6,3-8,3.2C1106.2,311.9,1105.1,311.2,1104.3,310.1z"/>
	<path id="CA-ON" class="st0" d="M821.5,485.3c0.8-1.5,1.8-2.1,3.7-2.5c1.5-0.3,3.2-0.7,3.6-1.1c1.2-0.8,2.1-5.9,0.8-6.6
		c-0.7-0.4-0.7-1-0.3-1.9c0.4-0.7,1-2.5,1.1-4.1c0.3-1.5,1.1-3.2,1.8-3.6c2.6-1.8,4.8-6.1,4.7-8.6c-0.1-1.2-0.3-5.1-0.4-8.3
		c-0.1-5.5,0.1-6.2,2.5-10.5l2.6-4.7l-1.2-2.9wc-0.7-1.7-1.9-3.5-2.9-4.3c-1.5-1.2-2.1-3.3-1-3.3c0.3,0,2.5,1.9,4.8,4.3
		c3.9,3.9,7.7,6.4,11.6,7.5c3.9,1.1,6.1-5.5,3.2-9.8c-1.9-2.8-9.8-11.3-11.7-12.9c-0.7-0.6-3.5-1.2-6.1-1.7
		c-2.6-0.3-6.5-1.1-8.7-1.7c-2.8-0.8-7-1.1-14.5-1.1c-9.9,0-10.6-0.1-11.6-1.5c-0.6-0.8-2.8-2.3-4.8-3.5c-3.2-1.7-3.9-2.3-3.9-3.9
		c-0.1-1.1-1-2.9-2.2-4.1c-1.8-1.9-1.9-2.2-0.8-2.6c1.7-0.6,1.5-2.2-0.3-4.7c-0.8-1.1-2.1-3.5-2.9-5.3c-1.2-2.8-1.8-3.3-4.1-3.6
		c-2.8-0.4-10.5-4.1-12.3-5.9c-0.6-0.6-1.1-2.2-1.1-3.7s-0.4-3.7-0.7-4.8l-0.6-2.1l-5.8,0.4c-5.4,0.4-6.1,0.3-9.9-1.8l-4.1-2.1
		l-3,1.9c-2.6,1.8-2.9,1.9-1.8,3c1,1,0.7,1.5-3.7,4.3c-2.6,1.8-6.1,4.4-7.5,5.9c-2.9,3.2-3.3,3.2-13.7,1.5c-3-0.6-7.7-1-10.5-1
		c-4.8-0.1-9.7-1.8-9.7-3.5c0-0.3-0.8-0.6-1.8-0.6c-1.1,0-2.9-1-4.6-2.5c-2.6-2.5-2.6-2.5-9.3-2.5c-4.8,0-6.9-0.3-7.6-1
		c-0.6-0.6-2.3-1.2-3.9-1.5c-4-0.7-4.4-1.2-5-6.2c-0.4-4.1-0.7-4.6-2.8-5.7c-2.2-1.1-2.3-1.2-2.2-5.4c0.1-4.6,1-23.9,1.4-31
		c0.1-2.3,0.6-9.4,0.7-15.8c0.6-14.4-0.7-12.2,16.6-30.1c3.6-3.7,8.7-9.3,11.3-12.3c2.6-3,5-5.7,5.4-6.1c0.4-0.4,4.7-5.3,9.4-10.9
		c4.7-5.5,10.2-11.9,12.3-14.1c9.8-10.8,14.1-15.6,15.5-17.3l1.5-1.8l2.3,1.4c3,1.7,7.7,6.2,7.7,7.3c0,0.4,1.1,1.8,2.3,3.2
		c1.8,1.7,3.5,2.5,6.6,3.2c3,0.6,5,1.5,6.5,2.9c2.1,1.9,3.9,2.6,7.3,2.8c0.8,0,3.3,1.7,5.4,3.6l3.9,3.5l13.5,0.4
		c11.7,0.4,14,0.7,16.6,1.9l3,1.5l-0.6,6.2c-0.3,3.5-0.8,6.5-1.1,6.9c-0.4,0.4,0,1.7,0.7,2.9s1.5,3.7,1.8,5.5
		c0.8,5.8,0.8,6.4,1.7,7.7c0.4,0.7,0.6,2.9,0.4,4.7c-0.3,2.6,0.3,4,1.9,6.6c2.8,4.4,11.5,14.8,12.3,14.8c1.7,0,6.2,5.9,7.6,9.8
		l1.4,4.1l4.4-0.4l4.4-0.4l0.4,3.7c0.7,5.8,1,8.4,1.5,12.7c0.3,2.2,0.6,4.8,0.7,5.8c0.1,1,0.6,3.7,0.7,6.1c0.3,2.3,0.6,5.1,0.7,6.1
		c0.4,2.3,1,8.2,1.5,12.7c0.3,1.9,0.6,4.7,0.7,6.1c1.1,8.7,1.8,14.6,2.2,18.4c0.3,2.3,1.5,6.4,2.6,9.1c1.8,4.1,2.9,5.3,6.4,7.7
		c4.7,3.3,11.2,5.7,17.8,6.2c3,0.3,5.4,1.1,7.6,2.5c1.8,1.1,3.9,2.1,4.7,2.1s2.2,1.2,3.3,2.9l1.9,2.8l6.2-0.4
		c5.4-0.3,6.9-0.7,10.8-2.9c4.6-2.5,8.3-3.6,8.3-2.6c0.1,1.1,0.6,2.9,1,4.4c0.4,1.2-0.1,2.1-2.2,3.9c-4.6,3.7-8.3,7.7-13.7,14.4
		c-2.8,3.5-5.4,6.2-5.8,6.4c-1.2,0.1-4.1,2.9-3.7,3.5c0.8,1.4-5,3.6-9.8,3.7c-8.6,0.3-21,5.4-23.6,9.8s-2.6,5.4,0.1,6.5
		c1.4,0.6,3.2,0.8,3.9,0.7c1.1-0.3,1.7,0.3,2.6,2.1c1.4,2.9,1,3.3-3.9,3.3c-2.9,0-10.8,3-12.9,4.8c-1,0.8-0.8,1.1,0.7,2.3l1.8,1.4
		l-1.9,0.6c-1.1,0.3-3.5,0.1-5.1-0.3c-6.9-1.8-8.4-1-17,7.9c-4.7,4.8-5.8,5.7-7.9,5.8c-1.4,0-3.6,0.1-4.8,0.3l-2.3,0.3L821.5,485.3z
		"/>
	<path id="CA-PE" class="st0" d="M1075.1,357c-0.3-0.3-3-0.6-6.4-0.7c-3.3-0.1-7.7-0.8-9.9-1.5c-4.8-1.5-5.8-1.7-7.2-1.8
		c-2.9-0.1-3.3-1.2-1.5-5c1-2.1,2.1-3.6,2.6-3.6c0.6,0,2.3,1.4,4.3,3.2c2.6,2.5,3.5,2.9,4.1,2.2c0.4-0.6,2.2-1,4.4-1
		c1.9,0,4.1-0.3,4.8-0.7c2.3-1.2,8.7-2.9,9.1-2.3c0.3,0.3-0.1,1.5-0.7,2.5c-0.6,1.1-1.1,3.5-1.1,5.1
		C1077.2,356.4,1076.1,358.1,1075.1,357z"/>
	<g id="CA-QC">
		<path class="st0" d="M929.3,410.4c-0.7-1.1-1.2-3.2-1.5-4.6c-0.3-2.3-0.4-2.5-3.3-2.8c-3-0.3-6.9,1.2-11.2,4.3
			c-1.5,1-3.2,1.4-7.3,1.4c-5.3,0-5.4,0-7.2-2.5c-1-1.4-2.3-2.5-3-2.5s-3-1-5-2.2c-2.5-1.7-4.8-2.3-7.6-2.6
			c-6.1-0.6-12.9-2.8-17-5.7c-3-2.1-4.1-3.5-5.9-7.5c-1.2-2.9-2.3-6.6-2.6-9.5c-0.3-2.5-0.6-5.7-0.7-6.9c-0.1-1.2-0.7-5.3-1.1-9
			c-0.4-3.7-1-8-1.1-9.4s-0.6-4-0.7-5.8c-0.3-1.8-1.4-11.7-2.5-22c-1.1-10.4-2.3-19.6-2.5-20.7c-0.4-1.7-0.1-1.9,1.9-2.3
			c2.1-0.4,2.2-0.7,1.8-2.6c-0.4-1.8-0.1-2.9,1.5-5.3c1.1-1.7,1.9-3.9,1.9-4.8c0-1-1.2-4.6-2.9-7.9s-3.3-7.5-3.7-9
			c-0.4-1.7-1.2-3.7-2.1-4.7c-0.8-1.1-1.1-2.9-1-5.3c0.3-3.7-1.8-7.9-4.3-9.3c-0.8-0.4-1.4-1.5-1.4-2.6s-0.7-2.8-1.5-3.7
			c-0.8-1-1.4-2.1-1.5-2.5c0-1.1,3.5-4.3,7.6-6.6c1.9-1.2,4.7-3.5,5.9-5s3.7-4.4,5.5-6.2c2.2-2.3,4.1-5.7,5.9-9.9
			c2.3-5.9,2.6-7,2.5-12.6c-0.1-4.6-0.7-7.7-2.1-12c-1.1-3.3-2.2-6.8-2.3-7.9c-0.7-3.3-7.2-10.2-11.9-12.7c-5.7-3-9.9-7.3-10.1-10.1
			c-0.1-1.1,0.4-3.5,1-5c0.7-1.5,1.2-3.3,1.4-3.9c0.1-0.6,0.8-1.7,1.7-2.2c1.1-0.8,1.5-2.1,1.5-4.7c0-2.3,0.4-3.9,1.4-5
			c1.2-1.4,1.2-1.8,0.4-4.6c-0.6-1.7-1.1-3.7-1.4-4.8c-0.4-2.2-2.3-5.9-4.4-8.8c-1.5-1.9-1.7-3-1.7-10.4c0-5.9-0.3-8.6-1-9.4
			c-0.6-0.7-1.9-3.5-3-6.1l-2.1-5l1.9-3.7c1.8-3.6,2.1-3.7,5.3-4.3c5.4-0.7,10.1-0.6,13.1,0.6c4.1,1.5,9.9,1.9,12.3,1.1
			c1.1-0.4,3.3-2.1,4.8-3.6c1.7-1.7,3.2-2.9,3.6-2.9c1.2,0,15.2,7.3,19.9,10.5c3.5,2.3,4.3,3.2,4.3,4.7c-0.1,1,0.4,2.6,1.1,3.6
			c1.1,1.7,1.9,1.9,8.7,2.8c4.1,0.6,9,1.4,10.9,2.1l3.5,1.1l-0.6,3.9c-0.6,3.9,0.1,6.4,3.5,15.8c0.4,1.1,0.7,3,0.7,4.1
			c-0.1,1.2,0.7,2.6,1.8,3.7c1,1,2.5,3.3,3.3,5l1.5,3.2l3.6-0.4c3.5-0.4,3.7-0.3,7.3,2.9c2.1,1.8,4.7,3.5,5.8,3.7
			c1.1,0.3,1.9,0.8,1.9,1.1c0,1.2,1.5,0.6,4.6-2.3c2.3-2.2,3.3-3.9,3.6-6.1c0.4-2.1,1-3.2,2.1-3.7c1-0.4,1.9-1.9,2.6-3.9
			c1.1-3.6,1-11.1-0.3-13.3c-0.4-0.8-0.7-1.8-0.6-2.2c0.1-0.4,0.6-2.5,1-4.7c0.7-3.6,2.3-6.2,3.6-5.4c0.3,0.1,0.7,1.5,1,3
			c0.6,3.3,3.7,8.8,5,8.8c0.8,0,2.9,7.2,2.5,9c-0.4,1.9,0.3,2.2,4.1,1.9l4.1-0.3l-0.1,4.6c-0.1,2.5-0.4,5.7-0.8,7
			c-0.6,1.7-0.6,2.9-0.1,3.7c0.8,1.7,4.7,4,7.3,4.7c2.3,0.6,2.6,1.2,3.2,9.7c0.3,3.7,0.8,8.4,1.4,10.5c0.6,1.9,1.1,4.8,1.5,6.2
			c0.3,1.8,1.1,3.2,2.6,4.3c2.2,1.7,5.7,7.9,5.7,10.2c0,0.7,0.6,1.7,1.4,2.3c0.7,0.7,1.9,2.5,2.6,4c1.2,2.6,1.2,2.9-0.3,6.2
			l-1.5,3.5l-3.7-0.4c-2.1-0.3-4.8-0.6-5.9-0.8c-1.9-0.4-2.3-0.3-4,2.1c-1.9,2.9-3.2,3.2-5.1,1.5c-0.7-0.7-3.3-1.5-5.7-2.1
			c-4.8-1-5.3-0.8-6.1,2.6c-0.3,1.1-1.2,2.3-2.2,2.9c-1.4,0.7-1.8,1.4-1.8,3.2s-0.7,3-2.2,4.7c-1.9,2.1-2.2,2.6-1.8,5.3
			c0.3,1.7,0.8,3.7,1.4,4.8c1.7,3.2,5.9,7.5,8.8,9c3.2,1.5,3.6,3.3,2.2,7.5c-0.8,2.2-0.7,2.5,1.2,4.3c2.1,1.8,4.6,1.9,8.8,0.6
			c1.4-0.4,1.7-0.1,2.1,3.2c0.4,2.5,1.1,4.3,2.3,5.5c1.7,1.7,2.2,1.8,5.8,1.2c3.3-0.4,4.3-0.3,5.4,0.8c0.8,0.7,1.9,1.4,2.6,1.5
			c3.3,0.6,10.8,0.8,11.6,0.3c0.6-0.3,1.1-2.1,1.2-3.7c0.4-4.1,1-8.8,1-9.1c0-0.1,1.4,0.6,3,1.2c2.2,1.1,3.7,1.4,5.9,1.1
			c3.2-0.4,14.6-4.4,26.8-9.1c18.5-7.3,30-11.5,34.3-12.6c2.5-0.7,5.1-1.5,5.7-1.9c0.6-0.6,1.2-0.6,1.5-0.1c1.7,1.9,5.1,6.6,5.1,7
			c0,0.3-2.1,1.9-4.6,3.9c-6.6,5-10.5,9.5-11.1,12.6c-0.3,1.4-1.8,5.5-3.6,9c-1.8,3.6-3.6,7.3-3.9,8.3c-0.8,2.2-12.6,8.6-19.9,10.6
			c-2.8,0.8-9,2.6-13.7,4c-27.9,8-41.5,13.1-43.9,16.6c-0.7,1-1.7,3.5-1.9,5.3c-0.3,1.9-1.2,5.7-2.2,8.4c-1.2,4.3-1.8,4.8-3.2,4.8
			c-3.5,0-10.5,8-13,14.8c-0.7,1.9-2.3,5.3-3.6,7.2c-1.2,1.9-2.5,4.7-2.6,6.1c-0.8,6.1-11.9,23.9-17.7,28.6
			c-8,6.5-19.2,18.4-18.2,19.3c0.1,0.1,3-2.8,6.4-6.5c3.3-3.7,8.3-8.4,10.9-10.4c4.6-3.3,9.4-8.6,12.7-13.4
			c2.9-4.3,8.3-14.8,8.3-16.2c0-0.8,0.4-2.2,0.8-3.2c1.2-2.5,7.9-10.6,10.6-13.3c1.4-1.2,4.1-3.7,6.1-5.7c1.9-1.8,5.5-4.6,7.9-5.9
			c2.3-1.4,6.8-4.4,9.8-6.4c3.7-2.6,6.9-4.1,10.1-4.8c4.4-1.1,5-1.1,9,0.1c3.5,1.1,4.4,1.8,5.5,3.7c2.9,5.5,2.3,9.1-1.8,14.2
			c-4,4.8-5.5,5.8-9.8,6.2c-8.3,0.8-15.2,2.8-17.4,4.8c-2.9,2.8-5.3,3.6-11.1,3.7c-6.9,0.3-7.2,0.7-6.6,8l0.4,5.9l-2.8,0.4
			c-1.5,0.3-3.6,0.3-4.7,0.1c-1.5-0.3-2.2,0.1-3,1.2c-1.4,1.9-4.6,12-5,16.4c-0.3,1.8-0.7,5.4-1.1,7.9c-0.4,2.5-0.8,6.1-1,7.7
			c-0.6,5.7-2.6,10.4-5.7,12.4c-1.5,1-3.3,2.9-4.3,4.3c-0.8,1.2-2.3,2.5-3.2,2.6c-0.8,0.1-6.8,1.5-13.1,2.9s-13.4,2.5-15.6,2.5
			C930.8,412.4,930.4,412.1,929.3,410.4z"/>
		<path class="st0" d="M1047.2,299.9c-1-0.1-2.6-0.8-3.6-1.5s-3.6-1.7-5.9-2.1c-5.1-1.1-6.2-3-3-5.5c1.7-1.2,3-1.7,6.8-1.8
			c9.9-0.3,13.4,0.3,20,2.3c6.6,2.1,6.6,2.2,6.6,4.6c0,2.8-0.3,2.9-8.3,3.6C1051.1,300,1049.1,300.2,1047.2,299.9z"/>
	</g>
	<path id="CA-SK" class="st0" d="M583.5,347.8c-0.1-0.1-2.9-0.6-6.1-0.8c-3.2-0.3-6.5-0.6-7.6-0.7s-3.9-0.6-6.5-0.7s-12.7-2.2-22.4-4.4c-9.8-2.2-18.2-4.1-18.8-4.3c-3.3-0.7-5.1-1.1-9.4-2.1
		c-2.5-0.6-5.3-1.2-6.1-1.4c-0.8-0.1-4-0.8-7-1.5c-4.6-1-5.5-1.5-5.3-2.5c0.4-1.1,6.1-24.5,6.5-26.8c0.1-0.6,1.2-5.3,2.5-10.5
		c1.2-5.1,3.5-14.2,4.8-20.2c1.4-5.9,4.3-17.4,6.2-25.6c1.9-8.2,3.7-15.5,3.9-16.2c0.1-0.7,1.2-5.5,2.5-10.5
		c1.1-5,3.6-15.2,5.5-22.7c1.8-7.6,4.4-18.2,5.8-23.8c1.4-5.5,3.6-15.1,5.1-21l2.6-10.9l3.7,0.3c2.1,0.1,5.3,0.6,7.3,0.8
		c1.9,0.3,6.1,0.3,9.1-0.1c5.3-0.7,5.8-0.6,9.9,1.2c4.1,1.8,5.8,1.9,5.8,0.4c0-0.8-15.3-8.3-19.2-9.3c-1.7-0.4-3.6-0.8-4.6-0.8
		c-0.8,0-2.2-0.7-3-1.5c-1.7-1.7-3.7-1.8-5.8-0.7c-1.7,0.8-1.7,0.7-0.6-4.4c0.6-2.9,1-3.6,1.9-3.3c1.1,0.3,6.2,1.4,11.1,2.2
		c1,0.1,2.3,0.4,3.2,0.7c2.3,0.6,32.3,6.4,34.3,6.6c1,0.1,5.7,1.1,10.5,2.1c4.7,1,9.9,1.8,11.6,1.9c2.8,0.3,2.9,0.4,2.8,2.8
		c-0.1,1.4-1,8.6-1.9,15.9c-1,7.3-2.1,15.1-2.3,17c-0.4,3.6-1.2,5.4-2.5,5.4c-1.1,0-5.5,4.8-6.4,7c-0.7,1.7-0.7,2.9-0.1,4.6
		c1.7,5.1,1.2,7.6-1.1,10.1c-1.7,1.7-2.1,2.6-1.7,3.5c0.6,0.8,1.1,0.7,2.9-0.8c1.2-1.1,2.8-1.9,3.3-1.9c1.1,0,1.1,2.2-0.1,16.6
		c-0.1,2.2-0.6,6.9-0.7,10.5c-0.3,3.6-0.6,7.9-0.7,9.8c-0.1,1.8-0.6,6.5-0.7,10.5c-0.3,4-0.6,8.4-0.7,9.8c-0.1,1.4-0.6,6.1-0.7,10.5
		c-0.1,4.4-0.6,8.7-0.7,9.8c-0.1,1-0.6,5.7-0.7,10.5c-0.3,4.7-0.6,9.1-0.7,9.8c-0.1,0.6-0.4,5.1-0.7,10.1s-0.6,9.5-0.7,10.1
		s-0.4,5.1-0.7,10.1s-0.7,9.7-0.8,10.4c-0.1,0.7-0.3,3.5-0.4,5.9C585.5,347.6,584.8,348.9,583.5,347.8z"/>
	<g id="US-AK">
		<path class="st0" d="M158.5,168.8c-0.5-0.5-0.5-0.8,0.4-2.3c0.6-0.9,1.3-1.7,1.5-1.7s1.1-0.7,1.8-1.5s1.9-1.6,2.3-1.7
			c0.5-0.1,1.9-0.7,2.9-1.5c2.3-1.5,2.6-1.5,3.5-0.7c0.4,0.5,0.2,0.8-1.2,2.3c-0.9,0.8-1.8,2-2,2.5c-0.3,0.8-2.2,2.2-4.5,3.2
			c-0.8,0.3-1.9,0.9-2.3,1.4C159.9,169.6,159.3,169.7,158.5,168.8z"/>
		<path class="st0" d="M212.9,270.1c-6.1-3.2-6.2-3.3-6.5-4.7c-0.1-0.8-0.6-3.1-1.1-4.8c-0.5-2-0.8-4.7-0.7-7.3c0-6.5,0-7.2-0.7-8.8
			c-0.5-1.4-0.6-2.6-0.4-6.2c0.1-2.5,0.4-4.7,0.5-4.9c0.3-0.4,0.2-7.2-0.1-10.6c-0.1-0.8-0.8-3.2-1.9-4.8c-1.5-2.9-1.7-3.7-1.9-7.1
			c-0.2-5.1-0.5-6.3-2-8.6c-1.2-1.9-1.2-2.2-0.9-4.7c0.2-2.3,0.4-2.7,1.4-3.2c2.2-0.9,2.2-2.2,0-1.4c-1.3,0.4-1.4,0.4-4-2.3
			c-2.6-2.6-2.8-3.2-3.8-7.2c-0.4-1.6-4.4-5.7-6.6-6.8c-1.1-0.5-2.6-1.6-3.5-2.4c-1.4-1.3-1.6-1.9-1.9-3.9c-0.2-2.4-0.3-2.4-2.2-3.2
			l-1.9-0.7l0.2-2.2c0.1-1.2,0.5-2.9,0.7-3.8c0.5-1.5,0.5-1.6-0.6-2s-1.2-0.5-1.2-2.5c0-2.6-0.4-3.9-1.3-3.9c-1.4,0-3.7,1.5-4.6,2.9
			c-0.5,0.8-1.5,1.7-2,1.9c-1.1,0.3-1.7,0.8-3.5,3.3c-1.8,2.3-3.2,2.2-4.8-0.4c-0.7-1.1-1.4-2.2-1.4-2.3c0-0.2-1.7-0.4-3.9-0.4
			c-2.1,0-4.2-0.2-4.6-0.4c-0.4-0.2-2.2-0.5-3.9-0.7c-2.8-0.2-4.7-0.9-5.6-2c-0.5-0.7-0.4-2.8,0.2-2.8c0.2,0,1.4-0.9,2.5-2.1
			c1.9-2,2.1-2.1,4.4-2.3c2.5-0.2,3.6-0.6,4.5-1.7c0.3-0.4,1.2-0.6,2-0.6c0.7,0,1.5-0.2,1.7-0.4c0.1-0.2,1.1-0.4,1.9-0.4
			s1.8,0.2,1.9,0.4c0.1,0.2,0.8,0.4,1.7,0.4c0.8,0,1.9,0.4,2.8,1.2c0.8,0.6,2,1.5,2.5,1.8c0.8,0.4,0.8,0.3-0.4-1.4
			c-2.3-2.8-2.3-2.8-0.5-3.6l1.6-0.7l-1.5-0.6c-0.9-0.4-2.5-0.5-4.7-0.5c-1.8,0.1-3.3,0-3.3-0.1s-0.2-0.5-0.5-1.1
			c-0.4-0.5-0.7-0.7-1.4-0.3c-2.6,1.4-6.6,2.6-8.8,2.7c-2.5,0.1-2.5,0.1-2.6,1.5l-0.1,1.4h-3.7c-4.2,0-8.2,0.7-10,1.9
			c-0.6,0.4-1.2,0.8-1.2,1.1c0,0.1-0.1,0.6-0.2,1.1c-0.1,0.4,0,0.7,0.1,0.7s0.5,0.2,0.8,0.4c0.4,0.2,0.4,0.7-0.3,2.3
			c-0.8,1.9-0.9,2-2.2,1.8c-0.7-0.1-1.5-0.4-1.9-0.6c-0.2-0.2-3.5-0.5-7.2-0.6c-6.3-0.2-8.3-0.4-10.3-1.2c-0.5-0.2-1.6-0.1-2.5,0.2
			c-2.2,0.7-14.4,0.7-15.9-0.1c-0.6-0.3-3.4-0.6-6.3-0.7c-2.9-0.1-5.8-0.4-6.3-0.5s-1.3-0.3-1.6-0.4c-0.3-0.1-0.7-0.3-1.1-0.6
			c-0.2-0.2-0.8-0.5-1.4-0.5c-0.5,0-0.9-0.5-1.3-1.3c-0.2-0.7-0.6-1.3-0.8-1.4c-0.7-0.1-1.1-0.2-3.2-0.9c-1.2-0.4-2.3-1.1-2.5-1.3
			c-0.5-0.6-5.4-3.2-6-3.2c-0.2,0-0.7-0.2-1.1-0.6c-0.2-0.3-0.8-0.5-1.4-0.4c-0.5,0.1-1.2-0.2-1.7-1.1c-0.5-0.7-1.2-1.3-1.5-1.3
			s-0.7-0.3-1.1-0.6c-0.3-0.4-0.9-0.6-1.5-0.6s-1.7-0.2-2.5-0.6c-1.2-0.5-1.6-0.9-1.8-2c-0.2-0.7-0.5-1.6-0.7-1.9
			c-0.5-0.7,0-2.2,0.8-2.3c0.4,0,1.9-0.1,3.2-0.2c1.4-0.1,2.6-0.1,2.9,0.2c0.3,0.2,1.4,0.5,2.4,0.7c3.2,0.4,5.7,1.5,6.9,2.8
			c0.8,0.8,3.1,2,6.7,3.5c5.2,2,7.5,3.2,9.4,4.4c0.7,0.5,1.7,0.5,5.6,0c0.4-0.1,2.5,0.3,4.6,0.8s3.9,0.8,4.1,0.8
			c0.1-0.1,1.6-0.3,3.3-0.4c4.5-0.4,7.3-1.4,11.7-4.2c2.2-1.4,4.8-2.9,6-3.5l1.9-0.8l-2.5-0.1c-2.9-0.1-3.9-0.8-4.2-2.9
			c-0.2-1.3-0.4-1.4-1.2-0.9s-0.9,0.3-1.5-0.3c-0.8-1.2-1.2-3.5-0.7-5.3l0.4-1.7l-3.1-2.9c-2.6-2.5-3.3-2.9-5.1-3.3
			c-1.8-0.2-2.8-1.1-2.8-2c0-0.1,0.8-0.8,1.9-1.7c2-1.5,6.7-7.5,7.5-9.4c0.4-1.2,0.4-1.2-1.7-1.2c-1.9,0-2.2-0.1-3.3-1.6
			c-0.6-0.8-1.7-2.1-2.4-2.6C93,96.3,93,94,94.5,91.3c0.5-1.1,1.2-2.8,1.2-3.8c0.1-1.1,0.2-2,0.2-2.2s1.3-1.1,2.8-1.9
			c2-1.1,2.9-1.9,3.4-2.8c0.6-1.4,0.6-1.5-0.2-3.1c-0.8-1.6-0.8-1.7-0.2-4c0.8-2.8,1.2-3.2,3.6-3.3c1.4-0.1,2.1-0.4,2.6-1.2
			c0.7-0.9,1.1-1.1,3.9-0.7c2.5,0.2,3.3,0.1,4.1-0.4c0.7-0.5,2-0.7,4.8-0.7h3.9l0.1,2.1c0,1.2,0.1,2.5,0.2,2.9s0.1,1.5,0.2,2.3
			c0.1,1.3,0.2,1.5,0.8,1.2c0.4-0.2,2.2-0.5,4.1-0.6l3.3-0.2l0.7,1.3c0.5,1.1,0.8,1.2,1.9,1.1c0.6-0.1,2.4-1.2,3.8-2.4
			c2-1.7,2.6-2.5,2.6-3.5c0.1-2.2,0.4-2.4,2.9-2.5c1.9-0.1,2.4-0.2,2.5-0.8c0.1-0.7-0.4-0.7-4.9-0.7h-5.1l-0.2-1.5
			c-0.2-0.8-0.1-1.7,0.2-2.1c0.4-0.4,0.3-0.7-0.3-1.5c-0.4-0.4-0.9-1.5-1.2-2.2c-0.2-0.8-0.7-1.6-1.7-2.1c-4.4-2.6-4.4-2.5-4.7-4.8
			c-0.4-2.8-0.4-3.1,0-5.5c0.3-1.9,0.4-2,2-2.5c1.9-0.5,2-1.2,0.8-3.4c-0.4-0.8-0.8-2.6-1.1-4.1c-0.2-2.3-0.2-2.6,0.7-3.5
			c0.9-0.8,1.2-0.8,4.1-0.4c2,0.3,4.6,1.2,7.2,2.3c2.2,1.1,5.7,2.3,7.8,2.9c4.2,1.2,5.9,1.9,5.9,2.4c0,0.2-0.8,1.2-1.9,2.2
			c-2.8,2.6-2.6,3.8,0.6,6.3c2.8,2.2,3.3,2.3,3.6,1.2c0.1-0.4,1.2-1.8,2.3-3.1c1.9-2.1,2.2-2.3,2.9-1.8c1.5,0.8,1.5,0.1,0.5-5.5
			c-0.2-1.2-0.9-2.6-1.7-3.7c-1.4-1.7-1.4-1.7-1.4-6.5c0-2.9,0.2-5.1,0.4-5.3c0.2-0.2,0.5-2,0.6-3.8c0.1-1.9,0.3-3.5,0.5-3.6
			s1.5-0.7,2.9-1.2l2.7-0.9l2,1.9c2.7,2.6,4.4,3.4,8.2,3.7c2.9,0.2,3.3,0.2,3.8-0.6c0.2-0.5,1.7-1.5,3.2-2.2
			c2.1-1.1,3.3-1.4,5.7-1.4l3.1-0.1l2,2c2.8,2.7,5.4,3.3,9.6,2.1c4-1.2,5.9-0.6,9.3,2.6l2.5,2.3h2.9c1.6,0,2.9,0.1,3.2,0.3
			c0.4,0.6,0.8,4.1,0.8,6.1c0,1.4-0.4,2.8-1.3,4.5l-1.3,2.6l1.3,1.5c0.7,0.8,2.1,2.1,3.2,2.7l1.8,1.3l-0.7,1.8
			c-0.7,1.4-0.7,1.5,0.2,2.6c0.5,0.6,1.4,2.1,1.9,3.2c0.7,1.7,1.2,2,2.2,2c1.5,0,4.8,3.6,5.8,6.2c1.1,2.8,6,8,11.5,11.8
			c2.9,2.1,5.3,3.4,6.3,3.6c0.8,0.1,1.7,0.4,1.9,0.7c0.4,0.6-0.1,5.1-0.5,5.7c-0.2,0.3-0.3,0.7-0.2,0.9c0.1,0.2,0.4,1.6,0.7,2.9
			l0.4,2.5l-3.9,5.9c-4.7,6.9-11.2,16.4-20.9,30.8c-3.9,5.9-9.3,13.8-11.9,17.6c-4.6,6.8-14.3,21.3-21.4,31.7
			c-3.8,5.7-3.9,6.1-1.6,7.9c0.7,0.5,1.7,1.4,2.1,1.8c0.6,0.6,2.1,0.8,5.1,1.1h1.1l-1.4,1.4c-1.9,2-2.2,2.8-2.5,6.9
			c-0.1,2-0.3,3.8-0.4,3.9c-0.1,0.1,0.2,0.8,0.7,1.8c1.1,2,1.3,6.3,0.5,9c-0.3,1.2-0.5,2.3-0.5,2.6c0,0.8,0.9,0.6,2.5-0.5
			c0.7-0.5,3.2-1.7,5.2-2.4c2.1-0.7,3.8-1.5,3.8-1.7c0-0.1,0.2-0.6,0.6-1.1c0.8-1.2,3.5-0.2,3.9,1.4c0.1,0.6,0.5,2.1,0.8,3.4
			c1.6,5.8,2.4,10.7,2.9,18.2c0.1,1.9,0.4,4.1,0.6,4.8c0.4,1.7,0.4,2-1.1,7.6c-0.8,3.5-0.8,4.3-0.5,6c0.7,2.9,3.2,7.7,4.7,9.4
			c1.3,1.4,1.4,1.7,1.3,3.5c-0.1,1.5-0.4,2.3-1.4,3.4c-1.8,2-2.3,3.1-2.3,4.7c0,1.5-1.4,3.2-3.6,4.2
			C219.5,273.5,219.3,273.5,212.9,270.1z"/>
		<path class="st0" d="M114.3,170c-2.3-1.6-4.4-3.2-4.5-3.4s0.2-1.5,0.8-2.7c0.7-1.6,1.1-2.6,0.8-3.7c-0.2-1.3-0.1-1.5,1.1-2.2
			c1.1-0.6,1.8-0.7,3.9-0.5c1.4,0.1,2.9,0.2,3.5,0.2c0.4-0.1,3.1-0.2,5.7-0.3c2.6-0.1,5.1-0.4,5.3-0.6c0.5-0.4,3.6-0.5,3.7-0.1
			c0,0.2,0.1,0.7,0.2,1.3c0.1,0.5-0.1,1.6-0.4,2.4c-0.5,1.2-1.1,1.6-2.9,2.3c-1.4,0.5-2.6,0.8-2.9,0.8s-1.5,1.5-2.6,3.3
			c-3.9,6.3-3.6,6-5.6,6C118.9,172.9,117.7,172.3,114.3,170z"/>
		<path class="st0" d="M29.7,128.2c-1.9-2.1-2.5-2.5-3.7-2.5c-1.1,0-1.6-0.2-2-0.9c-0.4-0.6-1.6-1.3-3.2-1.8
			c-4.4-1.4-4.4-1.4-3.9-2.3c0.4-0.8,0.5-0.8,7.3-0.2c1.2,0.1,2,0.6,3.5,2.2c1.1,1.1,2.2,1.9,2.4,1.8c0.2-0.1,1.5,0.2,2.7,0.7
			c2.3,1.1,2.3,1.1,2.2,2.6c-0.2,3.2-0.1,3.2-1.6,3.1C32.3,130.8,31.6,130.4,29.7,128.2z"/>
		<path class="st0" d="M84.3,87.6c-1.4-1.5-1.5-1.8-1.2-2.8c0.2-0.6,0.4-2.3,0.5-3.9c0.1-3.5,0.9-4.5,3.3-4.4
			c1.5,0.1,1.6,0.2,2.2,2.3c0.4,1.7,0.7,2.2,1.4,2.2c0.4,0,1.1,0.5,1.4,1.2c0.5,0.9,0.5,1.4,0,2.6c-0.3,0.8-1.1,2.2-1.7,2.9
			c-0.8,1.2-1.4,1.4-2.6,1.4C86.2,89.3,85.5,89,84.3,87.6z"/>
		<path class="st0" d="M102.9,50.5c-0.5-1.8-0.7-3.1-0.8-6.4c-0.2-3.1-0.4-3.9-1.1-4.5c-1.2-1.1-1.1-2.5,0.4-3.9s1.9-1.4,2.5-0.1
			c0.2,0.5,1.2,1.4,1.9,1.7c2.6,1.2,2.9,1.7,2.8,3.9c-0.1,2-0.2,2-1.4,1.9c-1.2-0.1-1.2-0.1-1.1,2c0.1,1.2,0.2,2.2,0.4,2.3
			c0.5,0.4,0.4,1.3-0.4,2.2C105.3,50.8,103.1,51.3,102.9,50.5z"/>
	</g>
	<path id="US-AL" class="st0" d="M758.7,718.9c-0.3-0.8-1-1-3-0.7l-2.5,0.6l0.4-27.4c0.3-15.1,0.6-28.9,0.7-30.5
		c0.1-1.8,0.6-6.1,0.8-9.4c0.3-3.3,0.7-6.6,0.7-7.3c0.1-0.7,0.4-4.1,0.7-7.5c0.3-3.5,0.6-6.9,0.7-7.5c0.1-0.8,1-1.1,3-1.2
		c1.5-0.1,9.5-0.3,17.8-0.6l14.9-0.4l0.7,2.6c0.4,1.5,1.1,4.3,1.5,6.4c0.4,1.9,1.5,5.5,2.2,7.9c1.2,4,2.2,9.3,3.2,17.5
		c0.3,1.9,1.2,5.3,2.5,7.6c2.2,4.3,2.2,4.8,1.9,16.4c-0.1,5.9,0.1,7.9,1.5,14c0.4,1.5,0.4,2.9,0.1,3s-4.8,0.3-10.2,0.4
		s-14.1,0.3-19.5,0.6c-8.6,0.4-9.9,0.6-11.1,1.9c-1.7,1.8-1.7,1.7,0.4,6.6c1,2.3,1.9,5.1,2.2,6.2l0.4,1.9h-5.1
		C760.2,720,758.9,719.7,758.7,718.9z"/>
	<path id="US-AR" class="st0" d="M662.9,659.3l-0.3-5.4l-2.3-0.7c-2.8-0.8-2.5,1-2.2-20.3c0.1-7.9,0.1-18.9,0.1-24.5l-0.1-9.9
		l31.8,0.3c17.4,0.1,31.9,0.6,32.2,0.7c0.3,0.3,0,1.9-0.6,3.7c-1,3.7-0.8,4.1,3.5,5.3c1.7,0.6,3,1.2,3,1.7c0,0.4-1.1,2.6-2.3,4.8
		s-2.9,5.8-3.3,7.7c-0.6,2.3-1.9,4.7-3.7,6.9c-2.1,2.3-3,4.1-3.3,6.5c-0.3,2.1-1.5,4.6-3.3,6.9c-3.9,5.3-5.1,9-5,15.9l0.1,5.8h-22
		h-22L662.9,659.3z"/>
	<path id="US-AZ" class="st0" d="M408.5,662.9c-3.6-0.8-8.2-1.9-10.2-2.5c-2.1-0.6-5-1.1-6.5-1.1c-2.2,0-3.6-0.7-7.5-3.7
		c-2.5-2.1-5.3-4.4-6.1-5.1s-4.4-3.3-7.9-5.8c-7.7-5.3-19.2-14-22.7-17.1c-1.4-1.2-3.6-2.8-5.1-3.3c-2.6-1.1-6.9-5.7-6.2-6.8
		c0.3-0.4,2.2-1.4,4.4-2.2c3.6-1.5,4-1.8,4-3.9c0-1.4-0.6-2.9-1.5-3.6c-2.1-1.9-1.8-3.6,1.1-6.5c1.4-1.5,3.2-3.9,4-5.5
		c0.8-1.7,1.9-2.8,2.6-2.8s2.2-1,3.3-2.1l1.9-2.1l-1.7-3.2c-1.4-2.5-1.7-4.3-1.7-9.4c0-3.5,0.3-6.4,0.4-6.4c0.3,0,0.7-2.9,1-6.4
		c0.4-4.6,1-6.9,1.9-8.3c1.4-1.9,1.7-1.9,5.7-1.5l4.1,0.4l2.3-6.2c1.2-3.5,2.5-6.4,2.9-6.5c0.6-0.4,68.8,16.4,70.1,17.3
		c0.4,0.3,0.6,1.1,0.1,2.1s-0.8,2.6-1,3.7s-2.6,12.2-5.5,24.5s-5.3,22.9-5.4,23.8c-0.1,0.8-1.7,7.3-3.3,14.4
		c-1.7,7.2-4.1,18.4-5.7,25.1C417.5,666.1,418.7,665.1,408.5,662.9z"/>
	<path id="US-SCA" class="st0" d="M261.7,535.8l68.5-0.1l19.5,35.8c0.4,0.6,0.7,3.2,0.6,5.9c-0.1,3.9,0.1,5.7,1.4,7.9c1.8,3.5,1.5,4.1-1.7,5
			c-1.8,0.4-2.8,1.4-4,3.7c-1,1.8-2.8,4.4-4.1,5.8c-2.9,3-3.3,6.4-1,8.8c2.1,2.2,1.8,2.9-2.3,4.7c-5.3,2.5-5.7,2.5-6.9,1.8
			c-1.1-0.7-16.2-4.8-25.4-6.9c-6.5-1.5-7-2.3-7.5-11.7c-0.3-6.9-0.4-7.6-2.9-11.7c-1.5-2.3-3.9-5.3-5.4-6.2c-1.5-1-3.2-2.8-3.6-3.9
			s-2.1-2.9-3.6-4.1c-1.5-1.2-3.7-3.7-5.1-5.7c-2.6-3.7-6.2-6.6-8.4-6.6c-2.1,0-6.5-2.9-8.6-5.8c-2.1-2.8-1.9-5.9,0.3-8.9
			L261.7,535.8z M281.2,593.4c-2.2-1.1-1-3,1.5-2.3c2.1,0.6,2.3,1.2,1,2.5C283,593.9,282.4,593.9,281.2,593.4z M283.5,583.9
			c-1.1-1.2-1.1-2.5,0-2.5c1.2,0,2.6,1.5,2.6,2.6C286.1,585.2,284.6,585.1,283.5,583.9z M268,567c-2.6-0.6-6.5-2.6-6.5-3.7
			c0-0.4,1.8-0.7,3.9-0.7c2.9,0,4.6,0.4,6.4,1.7c1.4,0.8,2.5,1.9,2.5,2.3C274.2,567.4,271.4,567.5,268,567z"/>
	<g id="US-NCA">
		<path class="st0" d="M260,530.8c-1.2-4.1-2.2-8.4-2.2-9.4s-1.1-3.6-2.3-5.8c-2.8-4.6-2.8-4.7-0.8-7.5c2.1-3,1.9-9-0.3-12
			c-1.4-1.9-1.7-2.8-1.1-5.8c0.3-1.9,1.1-4.4,1.9-5.3c1.9-2.5,1.2-5.3-2.1-8.2c-2.3-2.1-2.6-2.8-2.8-5.8c-0.1-1.9-0.8-5-1.7-6.9
			s-1.9-5.3-2.3-7.6c-0.8-3.9-0.7-4.6,1.8-12.3l2.5-8.2l-1.8-4.4c-1.8-4.4-1.8-4.6-0.6-7.3c0.7-1.5,2.1-3.7,3-4.8s3.5-4.6,5.7-7.9
			c3.5-5.1,3.9-6.4,4-9.5c0.1-2.3,0.4-3.5,0.8-3.3c0.8,0.3,21,7.6,32.9,11.9c4.1,1.5,10.9,4,14.9,5.5c7.3,2.6,7.3,2.6,6.6,4.6
			c-0.4,1-2.3,6.2-4.3,11.6s-5.1,14.5-7.2,20.2c-2.1,5.8-4.4,12.4-5.1,14.6c-1.5,4.1-1.5,9,0,10.9c0.4,0.4,2.3,4.3,4.6,8.4
			l24.6,46.8H261L260,530.8z"/>
		<path class="st0" d="M328.7,533.4h-67.3l-1.5-2.6"/>
	</g>
	<path id="US-CO" class="st0" d="M537.3,574.3c-3.2-0.7-14.2-3-24.2-5c-0.8-0.1-3-0.6-5-1c-1.9-0.4-4.4-0.8-5.4-1
		c-1.8-0.3-11.6-2.2-36.9-7c-6.2-1.1-13.3-2.5-15.9-3c-3.3-0.7-4.7-1.2-4.6-1.9c0.1-0.6,2.6-12.3,5.7-26c3-13.7,5.7-25.6,5.8-26.4
		c0.1-0.8,1.2-5.5,2.3-10.5c1.8-7.9,2.2-9,3.5-8.8c0.7,0.1,4.6,0.8,8.6,1.7c3.9,0.8,7.9,1.7,8.8,1.8c1,0.1,2.2,0.6,3,0.7
		c0.7,0.3,2.1,0.6,3,0.7c2.6,0.4,10.6,2.2,26.4,5.5c7.6,1.7,15.1,3.2,16.6,3.3s3.9,0.4,5,0.7c1.1,0.3,3.3,0.6,4.7,0.8
		c13.1,2.1,17,3,16.9,4c-0.8,5.7-4.7,33.4-5,35.8c-0.3,1.7-0.6,3.7-0.7,4.7c-0.1,1-0.4,2.9-0.7,4.4c-0.3,1.4-1,7.2-1.8,13
		s-1.7,11.5-1.8,12.7c-0.3,1.8-0.6,2.2-2.3,2.2C542.3,575.3,539.5,574.9,537.3,574.3z"/>
	<path id="US-CT" class="st0" d="M957.1,483c0.1-0.6-0.3-2.3-0.8-4.1c-0.7-1.8-1.1-3.9-1-4.7c0.1-0.8,0.3-2.3,0.4-3.6l0.1-2.2l8-1.7
		c4.4-1,8.4-1.8,8.8-1.8c0.7-0.1,3.9,10.5,3.9,13c0,0.3-1.9,1-4.1,1.7c-6.2,1.8-11.3,3.5-12,4.1C959.2,484.2,956.7,483.9,957.1,483z
		"/>
	<path id="US-DC" class="st0" d="M913.7,534.8c-0.7-0.7-0.6-1.1,0.1-1.8c0.7-0.7,1.1-0.6,1.8,0.1s0.6,1.1-0.1,1.8
		C914.7,535.6,914.3,535.6,913.7,534.8z"/>
	<path id="US-DE" class="st0" d="M933.2,533.8c-0.8-3.2-1.9-7.9-2.3-10.5c-0.8-4.3-0.8-5,0.1-5.7c1.8-1.1,2.1-0.8,2.1,2.1
		c0,5.5,0.7,6.9,4.3,9c3.2,1.9,7.3,7.2,7.3,9.4c0,0.7-1.5,1-5,1.1l-5,0.1L933.2,533.8z"/>
	<path id="US-SFL" class="st0" d="M842.4,734.4c6.9,6.4,5.9,6.1,6.5,16.9c0.3,4.6,1.1,9.3,2.1,12.9c1,3.2,1.8,6.2,1.8,6.9
		s1.1,2.2,2.5,3.3c1.7,1.4,3,3.6,4,6.5c1.1,3.3,2.2,4.8,4.4,6.4c1.5,1.1,3.7,3.6,4.7,5.5c1.1,1.9,2.9,3.9,3.9,4.4
		c1.1,0.4,3.7,2.9,6.1,5.5c4.3,4.8,9.9,8.6,11.9,8c2.9-0.8,7.3-1.1,7.3-0.6c0,2.5-7.9,8.6-13.3,10.2c-1.7,0.6-3.2,1.2-3.6,1.7
		c-0.6,0.6-0.4,0.6,0.4,0.4c0.6-0.3,2.6-0.8,4.7-1.5c4-1.4,9.9-5.4,11.5-7.9c0.6-0.8,1.2-4,1.5-7c0.3-2.9,1-6.2,1.5-7.3
		c0.8-1.5,1-4.4,0.8-12c-0.1-9.5-0.3-10.2-2.3-14.2c-1.2-2.3-3.6-6.9-5.3-10.1c-1.7-3.2-3.3-7.5-3.7-9.4c-1.5-7-3.2-10.6-6.9-15.8
		c-5.9-7.9-14.2-25.6-14.2-30.5c0-2.2-1.5-3.2-4.4-3.3c-0.4,0-0.8,0-1.2,0.1l-3,0.3l-0.3,3.9c-0.3,4.4-3.3,5.8-4.3,4.4L842.4,734.4z
		 M885,770.7c0.3,0,0.6,0.1,0.7,0.1c1.9,0.4,1.9,0.7,1.8,4.3c-0.3,4.1-1.1,4.8-4.3,3.2C879.7,776.3,881.2,770.5,885,770.7z"/>
	<path id="US-NFL" class="st0" d="M854,711c-0.8-1.4-1.8-1.8-3.9-1.8c-1.5,0-11.1,0-21.3,0l-18.5-0.1l-0.6-2.2l-0.6-2.2l-18.8,0.6
		c-10.4,0.3-19.5,0.6-20.3,0.7c-0.8,0.1-1.7,0.3-1.9,0.4c-0.8,0.1-0.6,1.8,0.8,5.5c0.7,1.9,1.7,4.4,1.8,5.5c0.3,1.5,0.8,1.9,1.7,1.7
		c0.7-0.3,4.6-0.6,8.7-0.8l7.3-0.6l4.1,2.5c2.2,1.4,5.3,2.9,6.6,3.3c1.5,0.6,3.2,1.8,4.3,3.3c1.7,2.3,1.9,2.5,4.4,2.1
		c1.5-0.3,5.1-1.8,8.4-3.3c8.8-4.4,10.4-4.8,13-3.6c1.2,0.6,3,2.2,3.9,3.6c1,1.4,4.4,5,7.7,7.9L854,711z"/>
	<path id="US-GA" class="st0" d="M855.7,708.6c-1-1.7-1-1.7-22.1-1.7h-21.1l-0.7-2.3c-0.4-1.2-1-2.2-1.5-2.2
		c-0.4,0.1-0.8,0.1-0.8-0.1c0-0.1-0.6-3-1.1-6.4c-0.7-3.3-1.1-8.3-1-11.1c0.4-11.1,0.3-13.3-1.8-16.2c-1.8-2.6-2.9-7.2-3.7-15.9
		c-0.3-1.8-1.1-5.8-2.1-9c-2.8-9.4-4.1-15.5-3.6-16.2c0.3-0.4,1.1-0.7,2.1-0.7c1.5,0.1,10.9-0.6,16.4-1.2c1.4-0.1,5.4-0.6,8.8-0.7
		l6.2-0.4l-0.6,2.2c-0.6,1.8-0.4,2.3,1.2,3.9c1,1,2.6,2.1,3.5,2.2c0.8,0.3,3.5,2.8,5.7,5.5s5.8,6.4,7.7,7.9
		c4.4,3.5,11.2,11.9,13.8,17.1c1,2.1,2.3,3.9,3.2,4.1c0.7,0.3,1.9,1.5,2.6,2.8c1.8,3.2,4.8,6.4,6.1,6.4c0.7,0,0.8,0.4,0.6,1.2
		c-0.3,0.7-1.7,4.6-3,8.6c-1.8,5-2.5,8.6-2.5,11.5c0,3-0.3,4.1-0.8,3.6c-0.8-0.6-7.3-0.4-9.3,0.1c-1,0.3-1.1,0.8-0.7,3
		c0.3,1.5,0.3,3.3,0,4.1C856.8,710.1,856.6,710.1,855.7,708.6z"/>
	<g id="US-HI">
		<path class="st0" d="M153.4,725.3c-0.8-0.3-2.3-0.8-3.2-1.2c-0.8-0.3-4.2-0.7-7.2-0.7c-5.3,0-5.7-0.2-6-2.7
			c-0.2-1.5,0.7-4.8,1.8-7.5c1.2-2.7,2.2-7.2,2.2-9.8c0-5.2,1-6.8,4.7-7.5c1.2-0.2,3-1.8,4.2-3.7c1.2-1.8,2.7-3.3,3.3-3.3
			c1.3-0.2,10.7,10,10.8,11.7c0.2,0.7,0.3,1.8,0.5,2.8s-0.2,3.7-0.5,6.2c-0.7,3.3-0.5,5,0.7,6.2c3.7,4.2-0.2,10.3-6,10.2
			C156.4,725.8,154.2,725.6,153.4,725.3z"/>
		<path class="st0" d="M143.2,666.9c-1.5-0.7-2.3-1.8-2.3-3.3c0-3,4.7-8.3,6.8-7.8c2.2,0.5,6.7,8.8,5.8,10.8
			C153.1,668.1,146.9,668.4,143.2,666.9z"/>
		<path class="st0" d="M137.1,645.6c-2.8-4.5-3-6.3-0.3-7.7c1.7-0.8,2.3-0.7,3.7,1.3c0.8,1.3,1.8,4.2,2.3,6.3
			c0.5,3.2,0.3,3.7-1.3,3.7C140.2,649.2,138.4,647.6,137.1,645.6z"/>
		<path class="st0" d="M120.9,624.9c-5.7-4.3-6-6.7-1.7-10.8c3.7-3.7,5.2-3.7,8.7-0.3c3,3,3.7,9,1.7,12.8
			C127.9,629.4,126.4,629.1,120.9,624.9z"/>
		<path class="st0" d="M96.7,581.9c-3.7-1.3-3.2-7.2,0.8-10.7c3.8-3.3,4.2-3.3,7.5-0.2c3.2,2.8,3.7,7.8,1.2,9.8
			C104.2,582.5,99.7,582.9,96.7,581.9z"/>
		<path class="st0" d="M80.2,570.5c-0.5-0.7-0.2-1.7,0.7-2.2c2.2-1.3,5.5-0.7,5.5,1.2C86.5,571.5,81.4,572.2,80.2,570.5z"/>
	</g>
	<path id="US-IA" class="st0" d="M702.3,519.9c-1.2-1.2-3-1.5-19.8-1.8c-10.1-0.3-20.5-0.6-22.7-0.7c-2.3-0.1-6.4-0.3-8.7-0.3
		l-4.4-0.1l-1.5-3c-0.8-1.7-1.7-5.1-1.9-7.7c-0.4-4.6-1-8.8-1.7-13.5c-0.1-1.2-1.1-3.9-2.1-5.8c-1.5-3-1.8-4.6-1.9-12.4
		c-0.1-5-0.1-9.4-0.1-9.8c0.1-0.7,7.3-0.8,34.8-0.7l34.8,0.3l0.6,2.5c0.3,1.4,0.8,4.4,1,6.9c0.6,4.8,2.3,8,4.8,8.7
		c0.8,0.3,1.9,1.2,2.5,2.3c0.4,1.1,1.5,2.9,2.3,3.9c2.6,3.3,1.5,11.6-2.1,13.4c-0.7,0.4-2.6,0.8-4.3,1.1c-3,0.6-3,0.6-3.2,3.5
		c-0.3,11.1-0.3,11.2-3.5,13.4C703.7,521.3,703.7,521.3,702.3,519.9z"/>
	<path id="US-ID" class="st0" d="M432.3,454.5c-1.7-0.6-12.4-3.9-24.2-7.5c-11.7-3.6-24.5-7.6-28.2-8.7s-10.2-3.2-14.4-4.4
		c-8.7-2.6-8.3-1-3.5-14.2c1.8-5,3.5-10.6,3.7-12.7c0.4-2.6,1.1-4.3,2.6-5.9c2.1-2.2,2.2-2.5,1.7-6.5c-0.3-2.3-0.6-4.4-0.6-4.6
		c-0.1-1.5,0.4-2.3,2.5-3.3c2.5-1.2,6.2-5.1,6.4-6.5c0-0.4,1.2-2.1,2.9-3.6l2.9-2.8l-1-5.8c-1.8-9.4-1.2-15.2,2.1-24.5
		c1.5-4.4,5-14.1,7.5-21.4s4.8-13.4,5-13.7c0.4-0.4,9,2.2,9,2.9c0,0.3-0.8,3.7-1.8,7.6c-1.1,4.7-1.8,9-1.8,12.6c0,3,0.1,6.1,0.1,6.9
		s1.2,3.7,2.8,6.5c1.5,2.8,3,6.2,3.3,7.6c0.6,2.3,2.9,6.6,4.1,7.2c1,0.4,0.6,3.3-0.8,5.5c-0.8,1.1-1.5,3.2-1.5,4.4
		c0,1.7-0.4,2.3-1.5,2.8c-1.7,0.6-2.9,3-2.9,6.1c0,1.8,0.4,2.2,2.3,2.8c1.2,0.4,3.3,0.6,4.3,0.3c1.5-0.3,1.9,0,2.5,2.1
		c0.4,1.2,1,4,1.1,5.9c0.3,1.9,0.6,3.7,0.7,4s0.4,1.5,0.7,2.9c1,5.7,1.8,8.2,3.3,9.8c1.5,1.5,2.1,1.7,5.7,1.2c2.6-0.3,5.7,0,8.8,0.8
		c2.6,0.7,5.5,1,6.1,0.8c2.1-0.7,3.3,0.6,2.9,2.9c-0.3,1.1-1.9,8.4-3.7,16.2c-1.9,7.7-4.1,17-5,20.6l-1.5,6.5L432.3,454.5z"/>
	<path id="US-IL" class="st0" d="M735.9,584.8c-0.3-8.2-0.8-9-8.3-14.4c-5.1-3.7-5.5-4.1-5-6.1c0.3-1.1,0.6-3.9,0.8-5.9
		c0.4-4.1-0.3-5.3-4.6-7.7c-2.2-1.2-3.9-3.7-3.9-5.8c0-0.6-2.1-3.2-4.6-5.8c-4.7-5.1-5.1-5.8-5.8-11.6l-0.4-3.6l3.5-2.6l3.5-2.6
		l0.1-6.4c0.1-3.5,0.3-6.4,0.3-6.5c0.1-0.1,1-0.4,2.1-0.6c5.5-1,8.4-4.8,9-11.6c0.3-3-0.1-4.1-1.9-6.6c-1.1-1.7-2.2-3.2-2.2-3.3
		c0-0.1,4.1-0.3,9.1-0.1c5.1,0.1,13.5,0.3,18.8,0.3l9.5,0.1v1.8c0,1,0.4,2.5,1,3.5c1.9,3,2.3,8.7,2.5,34.4
		c0.1,14.1,0.4,26.9,0.6,28.6c0.4,2.6,0,3.6-2.9,8c-2.8,4.4-3.3,5.7-3.6,10.1c-0.6,6.1-1.9,9.9-4,10.6c-0.8,0.3-1.8,1.1-2.2,1.9
		c-0.6,1.1-1.5,1.4-4.8,1.4c-2.8,0-4.6,0.4-5.4,1.1C736,586.5,736,586.5,735.9,584.8z"/>
	<path id="US-SIN_1_" class="st0" d="M797.8,508.3c0.9,15,1.5,42,1.1,43.2c-0.3,0.6-1.2,1.1-2.3,1.1c-2.5,0-2.9,0.3-7,5.8
		c-4.8,6.4-5.3,6.8-7.9,6.9c-1.2,0.1-4.1,1.1-6.2,2.3c-3.6,2.1-4.6,2.3-9,2.2c-2.8-0.1-5.9,0.3-7,0.7c-3,1.1-3.5,0.8-3-2.1
		c0.3-1.5,1.7-4.7,3.2-7.3l2.9-4.6l-0.3-28.3c0-5.5,0.3-6.7,0.2-11.2L797.8,508.3z"/>
	<path id="US-NIN_1_" class="st0" d="M761.9,513.5c-0.1-8.4-0.3-14.3-0.4-14.8c-0.3-1,0.3-1.2,1.7-1.2c1.1,0,2.2-0.4,2.6-0.7
		c0.4-0.4,6.8-0.8,15.8-0.8c12.9-0.1,15.1,0,15.2,1c0.2,1.2,0.4,3.9,0.6,7.7L761.9,513.5z"/>
	<path id="US-KS" class="st0" d="M650.5,585.2c-0.1-0.1-3.5-0.4-7.3-0.6c-4-0.3-7.7-0.6-8.3-0.7c-0.6-0.1-4.1-0.6-7.9-0.7
		c-3.7-0.3-7.3-0.6-7.9-0.7c-0.6-0.1-4.4-0.4-8.3-0.7s-7.7-0.6-8.3-0.7c-0.6-0.1-4.1-0.4-7.9-0.7s-7.3-0.6-7.9-0.7s-4.1-0.4-7.9-0.7
		c-3.7-0.3-7.3-0.7-7.9-0.7c-0.6-0.1-4.4-0.4-8.3-0.7s-7.7-0.7-8.3-0.7c-0.6-0.1-2.2-0.3-3.6-0.3l-2.5-0.1l1.2-9.1
		c0.7-5.1,1.5-10.6,1.7-12.4c0.3-1.8,0.6-4.1,0.7-5c0.1-1,0.6-2.9,0.7-4.4c0.3-1.4,0.7-5.1,1.1-8.3c0.4-3.2,1-6.9,1.1-8.3
		s0.6-3.7,0.7-5.3l0.4-2.8l4.8,0.4c4.6,0.4,15.8,1.7,21,2.2c1.4,0.1,4.7,0.6,7.2,0.7c2.5,0.3,5.5,0.6,6.5,0.7s3.9,0.4,6.5,0.7
		c2.5,0.3,5.5,0.6,6.5,0.7c1,0.1,4.3,0.6,7.2,0.7c3,0.3,5.9,0.6,6.5,0.7c0.6,0.1,3.5,0.4,6.5,0.7s6.1,0.7,6.8,0.8s4.1,0.4,7.6,0.7
		c5.7,0.4,6.4,0.7,8.3,2.5c2.1,2.1,2.1,2.1,0.8,4c-1.1,1.7-1.1,2.3-0.4,4.7c0.4,1.5,1.2,2.8,1.9,2.8s1.2,0.6,1.8,1.2
		c1.2,2.3,1.7,22.1,0.7,31.6l-0.8,8.8l-2.1-0.1C651.6,585.4,650.6,585.2,650.5,585.2z"/>
	<path id="US-KY" class="st0" d="M738.2,592c0.1-2.1,0.6-4.3,0.8-4.7c0.4-0.6,2.3-0.8,5-0.8c3,0,4.4-0.3,4.7-1
		c0.3-0.6,1.5-1.7,2.8-2.5c1.9-1.1,2.5-2.2,3.3-5c0.8-3.5,1.1-3.7,4.3-4.7c1.8-0.6,5.7-1,8.6-1c4.7,0,5.7-0.3,8.8-2.2
		c2.1-1.2,4.7-2.2,5.9-2.2c2.5,0,5.1-2.2,9.8-8.7c1.2-1.8,2.5-3.5,2.6-3.6s1.7-0.6,3.3-0.7l3-0.4l0.3-3.5l0.3-3.5l2.5,0.4
		c1.4,0.3,3.7,1.2,5.3,2.5c3.3,2.3,7.9,3.3,15.9,3c4.7-0.1,5.7,0.1,6.9,1.4c1,1,1.2,2.3,1.1,4c-0.3,2.9,1.2,5.9,5.8,11.2l3,3.6
		l-1.8,1.2c-2.1,1.5-2.9,2.3-9.8,9.9c-4.4,5-5.5,5.8-7.6,5.8c-6.8,0.1-50.6,1.2-53.3,1.4c-1.8,0.1-5.7,0.3-8.6,0.3
		c-4.3,0.1-5.4,0.3-5.8,1.2c-0.6,1.5,0.1,1.2-9.8,1.9l-7.7,0.6L738.2,592z"/>
	<path id="US-LA" class="st0" d="M737.1,743.7c-1.1-0.4-3.7-1.4-5.7-2.1c-3.2-1.2-3.6-1.2-5.8-0.4c-2.6,1.1-4.6,1.7-9.1,2.2
		c-4.4,0.6-8.8-1.5-12.9-5.9c-1.7-1.9-4.6-4.3-6.4-5.1l-3.3-1.7l-1.7,1.5c-2.9,2.6-9.1,2.3-15.1-1c-2.3-1.2-12.9-1.5-14.2-0.3
		c-1.7,1.7-1.5,0.3,0.1-4.8c1-2.8,1.9-6.5,2.1-8.3c0.8-5.8,1.1-7.2,2.5-9.5c1.2-2.2,1.2-2.8,0.4-7c-0.6-2.5-1.8-6.6-2.9-9
		c-1.8-3.9-2.1-5.3-2.3-14.6l-0.3-10.2h22.1c17.1,0,22.1,0.3,22.1,0.8c0.1,2.9,0.8,6.2,1.5,8c1.1,2.8,0.1,6.2-4.8,15.6
		c-4.6,8.8-5.7,13.5-3,14.5c0.8,0.4,4.7,0.7,8.4,0.8c5.9,0.1,12.6,0.4,17.8,0.7c1.4,0.1,1.5,0.7,1.9,5.7c0.4,6.2,1,7,6.9,9.7
		c2.9,1.2,3,1.7,3,4.1c0,1.8-0.6,3.2-1.2,3.9c-2.2,1.9-1.9,4.6,0.6,5.7c2.3,1,5.8,4.6,5.8,6.2c0,0.6-0.7,1-1.4,1s-1.8,0.1-2.3,0.3
		C739.6,744.3,738.2,744,737.1,743.7z"/>
	<g id="US-MA">
		<path class="st0" d="M993.9,471.8c0.1-0.7,0.8-1.2,1.7-1.2c0.8,0,1.5,0.6,1.7,1.2c0.3,1-0.3,1.2-1.7,1.2
			C994.1,473,993.7,472.8,993.9,471.8z"/>
		<path class="st0" d="M1001.7,470.4c-1.2-0.6,0.3-2.3,2.1-2.3c1.5,0,1.8,0.8,0.6,2.1C1003.5,470.8,1003.2,471,1001.7,470.4z"/>
		<path class="st0" d="M985.6,465.7c-1.5-2.3-3.2-4.4-3.6-4.4c-0.4,0-1.4-0.1-2.1-0.3c-1-0.3-15.6,2.5-22.7,4.3
			c-1.4,0.4-1.5,0-1.7-3.7c-0.1-2.2-0.3-5-0.6-6.1c-0.4-1.9-0.3-1.9,2.3-2.1c1.5,0,3.6-0.3,4.6-0.4s5.1-0.8,9.3-1.5
			c7.2-1.1,7.6-1.2,10.1-4c1.9-2.1,3-2.8,4.8-2.8c3.5,0,4.1,1.2,2.9,5.3c-1,3.2-1,3.6,0.3,5.1c0.7,1,2.5,2.3,3.9,3.3
			c1.5,1,2.6,1.9,2.6,2.1c0,1,4.3,2.9,5.4,2.3c1.5-0.6,1-3.7-0.8-5.1c-1.1-0.8-1-0.8,0.4-0.8c0.8,0,2.2,1,3.2,2.2
			c1.7,2.2,1.7,2.2,0.3,4.1c-0.8,1-3,2.3-5,3c-1.9,0.7-4.6,1.8-5.8,2.3C989.7,471,988.5,470.5,985.6,465.7z"/>
	</g>
	<path id="US-MD" class="st0" d="M933.9,547.6c-0.6-1.2-1.2-1.8-2.2-1.5c-2.6,0.7-5.7-4.6-5.8-10.4c0-1.4-0.3-3.7-0.6-5.3
		c-0.3-1.7-0.1-3.2,0.4-3.7c0.6-0.6,0.7-1.7,0.4-2.2c-0.6-1.7-3-0.3-4.4,2.6c-1.5,3-0.8,14.2,1.2,18.2l1.5,2.9l-1.7-0.6
		c-1-0.3-2.5-0.7-3.6-1c-2.6-0.6-5.7-3.5-5.7-5.5c0-1,1.1-3,2.5-4.6l2.5-2.9l-1.8-1.9l-1.8-1.9l-2.1,1.8c-2.3,1.9-4.7,1.8-5.9-0.3
		c-0.4-0.7-1.8-2.2-3.2-3.6c-2.1-2.1-2.9-2.3-5.8-2.3c-4.8,0-9.4,1.7-13.8,4.7c-2.1,1.5-3.9,2.5-4.1,2.3c-0.3-0.3-0.6-1.5-0.8-2.9
		c-0.4-2.5-0.4-2.5,2.8-2.9c1.8-0.3,9-1.4,16.2-2.6c13.4-2.3,13.7-2.3,19.2-3.3c1.8-0.3,3.9-0.7,4.7-0.8s2.3-0.4,3.6-0.7l2.2-0.4
		l1.2,6.6c0.7,3.7,1.9,8.7,2.8,11.2l1.5,4.6h5.7h5.7l-0.1,3.2c-0.1,1.8-0.4,3.3-0.6,3.5c-0.3,0.1-2.3,0.6-4.7,0.7
		C934.8,549.4,934.7,549.4,933.9,547.6z"/>
	<path id="US-ME" class="st0" d="M984,434.3c-2.5-3.2-7.7-19.5-9.5-29.2c-0.1-1-0.6-2.3-0.7-3c-0.3-0.7-0.1-1.4,0.4-1.7
		c1.1-0.7,3.9-8.4,4.1-11.9c0.1-1.8,0.7-5,1-7.2s0.8-5.9,1.1-8.3c0.3-2.3,1.2-6.9,2.3-10.1l1.9-5.8l4.8-0.6c2.6-0.3,5.3-0.8,5.8-1.1
		c0.6-0.4,1.7-0.6,2.5-0.6c0.8,0.1,2.1,0.1,2.6,0.3c0.6,0.1,2.2,1.1,3.5,2.2c2.1,1.8,2.5,2.6,2.3,4.8c-0.1,6.6,5.1,19.8,8.6,21.3
		c1,0.4,1.8,1.1,1.8,1.7c0,0.4,1,1.9,2.2,3.5c1.7,1.9,3,2.9,5.8,3.5c4.4,1.1,5.7,2.3,4.4,4.6c-2.1,3.7-5.7,7-8.8,7.9
		c-2.3,0.7-4.8,2.5-9.8,7.2c-3.6,3.5-7.9,7.3-9.8,8.7c-1.8,1.4-4.6,4.1-6.1,5.9c-1.7,1.9-4.1,5-5.7,6.8c-1.5,1.8-2.9,3.3-3,3.5
		C986.1,436.8,985.1,435.7,984,434.3z"/>
	<g id="US-MI">
		<path class="st0" d="M772.1,493.2c0-0.4,0.6-1.2,1.1-1.9c0.6-0.6,1.1-1.9,1.1-2.9s0.7-3.9,1.5-6.5c1.2-3.9,1.4-5.1,0.7-6.5
			c-0.4-1-0.8-3.3-0.8-5s-0.3-3.2-0.6-3.2c-0.4,0-1.4-1.7-2.3-3.7c-2.1-4.4-2.1-11.1-0.3-14c0.7-1,1.2-3.3,1.5-5.1
			c0.1-1.8,0.8-3.7,1.4-4.4c0.6-0.6,1.1-1.8,1.1-2.6c0-1,0.7-1.9,1.8-2.5c1-0.4,1.8-1.1,1.8-1.5c0-1.7,1.5-0.7,1.9,1.2
			c0.7,2.8,0.8,3,2.1,2.6c0.6-0.3,1.1-1.2,1.1-2.3c0-1,0.4-2.5,1-3.2s0.8-2.1,0.7-3c-0.3-1.4,0-1.8,1.4-1.9c1.5-0.3,1.8-0.7,1.8-3.2
			c0.3-6.5-0.1-6.1,3.2-5.7c1.9,0.3,3.2,0.1,3.5-0.4c0.4-0.6,1.5,0.1,3.6,2.1c1.7,1.7,4.3,3.2,5.9,3.6c5,1.2,6.9,4.3,7.6,11.2
			c0.7,6.9,0.6,8-1.1,10.5c-1.2,1.9-1.8,3.2-2.1,5.1c0,0.3-0.6,0.6-1.1,0.6c-0.7,0-1.1,0.7-1.1,2.3c0,1.2,0.6,2.9,1.1,3.3
			c1.2,1.1,1.8,0.7,7.3-4.6l3.7-3.6l2.5,2.6c2.3,2.5,3.9,6.4,4.6,10.9c0.1,1.1,0.6,3,0.8,4c1,3-1,7.9-4.6,11.5
			c-1.8,1.8-3.3,3.6-3.3,4.1c0,0.6-0.6,1.8-1.1,2.6c-0.7,1-1.1,3.2-1.2,5l-0.1,3.3l-4,0.1c-2.2,0-4.7,0.3-5.5,0.4
			c-1.2,0.3-11.2,0.4-15.5,0.1c-1-0.1-6.1,0.1-11.3,0.4C774.6,493.9,772.1,493.8,772.1,493.2z"/>
		<path class="st0" d="M755.5,423.8c-2.5-4.1-3.6-5.3-6.8-6.6c-4.8-2.2-13.3-5.3-19.6-6.9c-4.3-1.1-5.1-1.7-6.4-3.6
			c-1.2-2.2-1.2-2.3,0.1-3.7c0.8-0.8,2.1-1.5,2.9-1.5c2.6,0,9-2.3,11.5-4.3c5.9-4.7,12.3-8.2,13.3-7.5c0.4,0.3-0.1,0.8-0.8,1.5
			c-1.9,1.4-3.7,4.8-3,5.9c0.6,1,2.1,1.4,4.8,1.5c0.8,0,3.3,1.5,5.3,3.3c4.1,3.7,4.7,3.7,14.8,1c9.9-2.6,18.2-2.5,19.5,0.6
			c0.3,0.7,1,0.8,1.7,0.7c2.1-0.7,8.6,2.9,9.9,5.3c1.5,2.9,1.5,3.5-0.3,4.1c-3.2,1-5.1,1.2-12.3,1.5c-4.1,0.1-8.6,0.6-9.7,1
			c-1.1,0.4-3.5,0.8-5.1,0.8c-2.5,0-3.3,0.4-4.7,2.2c-1,1.2-2.2,2.2-3.3,2.2c-1.5,0-7,4.3-7,5.4c0,0.3-0.4,1-1,1.5
			C758.8,428.7,758,428,755.5,423.8z"/>
	</g>
	<path id="US-MN" class="st0" d="M638.9,456.4c0.4-9.9,1-20.7,1.4-24.9c0.3-3,0.1-5.5-0.8-8.6c-1.2-4.1-1.2-4.4,0-6.4
		c1.1-1.9,1.2-3.3,0.8-11.3c-0.3-5-0.6-10.6-0.7-12.4c-0.1-1.8-0.6-10.8-0.7-19.9l-0.6-16.7l5,0.3c15.8,0.8,16.2,0.8,17.3-0.3
		c0.6-0.6,1-1.7,1-2.5c0-1.7,0.3-1.7,2.2-0.7c1,0.6,1.5,1.9,1.9,4.8c0.6,4.8,1.8,6.4,5.8,7c1.7,0.3,3.5,1,4,1.5
		c0.7,0.7,3.3,1,7.7,1.1c6.5,0.1,6.8,0.3,9.3,2.5c1.5,1.2,3.2,2.3,3.7,2.3c0.6,0,2.5,1,4.3,2.2c2.9,1.9,3.7,2.2,7.9,2.1
		c4.8-0.1,13.8,1,16,1.9c1.1,0.4,1.1,0.7-0.6,2.2c-1,1-2.5,1.8-3.5,1.8c-3,0-7.5,2.6-9.1,5.3c-0.8,1.5-2.5,3.2-3.7,3.9
		c-1.1,0.7-2.1,1.5-2.1,1.8s-0.4,0.6-1,0.6s-1.5,0.7-2.1,1.7s-2.5,2.8-4.4,4.1c-3.7,2.9-4.1,3.3-4.6,8.3c-0.3,1.9-0.6,4.3-0.6,5
		c-0.1,0.8-0.3,1.7-0.3,1.8c0,0.1-1.2,1-2.6,1.8c-2.9,1.7-4.7,4.4-4.1,6.5c0.6,2.2,0.6,11.3-0.1,13.1c-0.4,1.2-0.1,2.1,1.1,3.3
		c4.4,4.3,14.6,13.3,16,14.2c1.5,1,3.3,4.4,3.3,6.5c0,0.7-7,0.8-33.7,0.7l-33.7-0.3L638.9,456.4z"/>
	<path id="US-MO" class="st0" d="M725.8,606.4c-1-0.4-1.9-0.8-1.9-1c-0.1-0.1,0.1-1.7,0.4-3.5c1.1-5.8,2.8-5.5-34.3-5.8l-32.5-0.3
		l-0.1-1.8c-0.6-8.6-0.3-14.5,1-19.5c0.4-1.8,0.4-17-0.1-23.5c-0.1-1.9-0.3-4.3-0.3-5.3s-1.2-2.8-2.6-4.3c-2.3-2.3-2.5-2.6-1.5-4.3
		c2.1-3.2,1.8-5.1-1.1-7.6c-1.8-1.5-2.9-3.3-3.5-5.5c-0.4-1.8-1-3.6-1.2-4.3c-0.4-1,0.3-1.1,4.1-0.8c2.5,0.1,14.1,0.4,25.8,0.7
		s21.8,0.8,22.5,1.1c0.7,0.4,1.1,1.2,1.1,1.9c-0.1,1.4,0.7,7.5,1.2,10.2c0.3,1,2.3,3.7,4.7,6.1c2.8,2.8,4.6,5.3,5,7s1.7,3.5,3.3,4.7
		c5.9,4.7,5.5,3.5,4.4,9.8c-0.6,3-0.8,5.8-0.6,6.2c0.3,0.4,2.9,2.5,6.1,4.8c3,2.3,5.9,4.7,6.2,5.4c0.4,0.7,0.8,3.2,1.1,5.5
		c0.6,4.8,0.8,5.5,2.1,5.5c0.6,0,0.8,1,0.6,3c-0.3,2.3-0.8,3.6-2.5,5.1c-1.8,1.7-2.5,3-3,6.1C729.6,607.2,729,607.8,725.8,606.4z"/>
	<path id="US-MS" class="st0" d="M734.2,719.7c-2.6-2.2-2.8-2.3-3-7.9c-0.1-3-0.4-5.8-0.6-6.1c-0.1-0.3-4.7-0.7-9.9-0.8
		c-5.3-0.1-10.9-0.4-12.6-0.4c-1.7-0.1-3.6-0.3-4.6-0.3c-2.6-0.1-2.1-3.6,1.7-10.4c1.8-3.3,4.1-8.2,5.1-10.9c1.7-4.6,1.7-5,0.7-7
		c-0.8-1.5-1.2-5.1-1.5-11.7c-0.4-11.3,0.3-14.4,4.7-20.2c1.8-2.3,3.2-5.1,3.5-6.8c0.6-3.5,1.1-4.6,3.7-7l2.1-2.1l15.6-0.4l15.6-0.4
		v2.1c0,1.1-0.3,4.8-0.7,8.3c-0.4,3.3-0.8,8.6-1.1,11.6s-0.6,6.2-0.7,7.2c-0.7,5.3-1.2,25-1.1,42.4l0.1,19.6l-1.7,0.1
		c-6.2,0.1-10.4,1-11.3,2.1C737.1,721.9,736.8,721.9,734.2,719.7z"/>
	<path id="US-MT" class="st0" d="M538,418.6c-0.1-0.1-1.2-0.4-2.5-0.7c-2.3-0.4-14.4-2.9-37.2-7.7c-7.7-1.7-20-4.3-27.5-5.8
		c-7.3-1.5-14.8-3.2-16.6-3.6c-4.8-1.1-4.8-1.1-6.5,2.6c-1.5,3.3-1.5,3.5-4.7,3.3c-1.8-0.1-4.4-0.6-5.8-1s-5-0.8-8-0.8
		c-6.9-0.1-6.9-0.3-9-11.3c-2.1-11.1-2.9-14.4-3.9-14.5c-0.4,0-2.3,0-4.3,0.1c-3.5,0.1-3.5,0.1-3-1.9c0.4-1.9,2.2-3.7,3.5-3.9
		c0.3,0,0.6-1.1,0.6-2.6s0.7-3.5,1.4-4.6c2.2-3,2.1-6.5-0.3-9c-1.1-1.1-2.5-3.9-3.2-6.1s-2.1-5.5-3.3-7.5c-3.2-5.3-3.5-12.6-1-23.8
		l1.9-8.4l8.7,2.9c8.2,2.6,42.1,12,47,13.1c1.1,0.3,5.9,1.5,10.5,2.6c7.2,1.9,54.2,12.7,63.4,14.5c1.8,0.4,3.3,0.7,3.6,1
		c0.3,0.1,2.6,0.6,5.1,0.8c2.5,0.3,4.7,0.6,4.8,0.7s-0.1,1.9-0.6,4.1c-0.7,4.1-1.1,6.5-1.9,11.1c-0.3,1.5-0.6,3.5-0.7,4.4
		c-0.3,1.5-0.6,3-1.4,8c-1.2,7.9-7,40.8-7.3,42.4C540.2,418.6,539,419.4,538,418.6z"/>
	<path id="US-NC" class="st0" d="M907.8,634.3c-1.4-1-3.5-2.3-4.7-2.9c-1.1-0.6-5.4-3.6-9.3-6.9l-7.2-5.8l-8.2,0.3
		c-7,0.3-8.4,0.1-9.8-1c-2.6-2.1-4.3-2.3-12.3-2.2s-13.5,1.2-20.5,4.4c-3.7,1.7-4.6,1.8-14.5,2.5c-3.6,0.3-7.2,0.6-7.9,0.8
		c-1.2,0.3-1.2,0.3,0.3-1c1-0.7,3-2.6,4.7-4.4s4.7-4,6.6-5c1.9-1,5.3-3.3,7.2-5s6.2-4.4,9.4-5.9c5.9-2.9,9.1-5.7,10.1-8.6
		c0.7-2.3,2.1-2.9,9.3-3.5c3.5-0.3,7.2-0.6,7.9-0.7c0.8-0.1,3.5-0.4,5.8-0.7s5-0.6,5.8-0.7c0.8-0.1,7.7-1.1,15.3-2.1
		s14.4-1.9,15.2-2.1s2.9-0.6,4.7-0.7c5.1-0.7,14.9-2.5,19.9-3.6c1.1-0.3,1.8,0.1,2.5,1.9c0.8,2.1,0.8,2.3-1,3.9l-1.9,1.7l3.6,0.6
		c2.6,0.4,4.1,1,5.5,2.6c2.5,2.8,2.3,3.6-0.7,6.9c-1.4,1.5-2.6,3.3-2.9,4c-0.4,1.1-3.5,1.8-6.9,1.4c-0.3,0-0.4,1.4-0.4,3.2l0.1,3.2
		h2.6c3.2,0,3.3,0.7,1.1,3.3c-3.2,3.7-4.4,4.6-6.9,4.6c-2.2,0-3.2,0.7-8.2,5.9c-5,5.1-5.7,6.2-5.7,8.6c0,2.3-0.3,2.8-2.9,3.9
		c-1.7,0.7-3,1.2-3.2,1.2C910.4,636.5,909.1,635.4,907.8,634.3z"/>
	<path id="US-ND" class="st0" d="M633.2,413.5c-0.1-0.1-2.1-0.4-4.6-0.7c-2.3-0.3-5.1-0.6-6.1-0.8c-1-0.1-3.3-0.6-5-0.7
		c-1.8-0.3-4.4-0.6-5.8-0.7c-4.1-0.6-7.3-1-11.6-1.5c-2.2-0.3-4.8-0.6-5.8-0.8c-1-0.1-8.3-1.1-16.2-2.1s-15.3-1.9-16.6-2.2
		c-3-0.6-6.5-1-11.6-1.5l-4.4-0.6l1.9-11.6c1.1-6.4,2.2-12.7,2.3-14c0.3-1.2,0.6-3.3,0.7-4.4c0.1-1.1,1.1-6.9,2.2-12.9
		c1-6.1,1.8-11.2,1.8-11.5c0-0.4,9.3,0,12.9,0.7c0.7,0.1,3.6,0.4,6.4,0.7c2.8,0.3,5.9,0.6,6.9,0.7s3.7,0.4,6.1,0.7
		c2.3,0.3,5.5,0.6,6.9,0.8c4.6,0.6,21.1,2.5,24.9,2.9c1.9,0.3,4.7,0.6,6.1,0.7c1.4,0.1,4.3,0.6,6.5,0.7s4.1,0.7,4.4,1.1
		s0.6,5.9,0.6,12.4c0.1,6.5,0.3,12.9,0.4,14.2c0.3,2.2,1.1,20,1.4,27.5c0.1,2.3-0.1,2.5-2.2,2.6
		C634.4,413.6,633.3,413.5,633.2,413.5z"/>
	<path id="US-NE" class="st0" d="M640.2,527.1c-2.8-0.3-7-0.7-9.4-1c-2.3-0.3-8.7-1-14.1-1.5c-5.4-0.6-11.3-1.2-13.3-1.5
		c-1.9-0.3-4.7-0.6-6.1-0.7c-3.2-0.4-7.2-0.8-16.6-1.8c-4.1-0.4-8.4-1-9.4-1.1c-1.5-0.3-11.9-1.2-14.1-1.5c-1-0.1-0.7-6.1,0.8-15.2
		c0.6-3.7,1.7-3.3-22.8-7.3c-1-0.1-2.6-0.4-3.6-0.7l-1.8-0.4l2.9-17.1c1.7-9.4,3-17.3,3-17.4c0.1-0.3,16.9,1.8,26.7,3.2
		c1.1,0.1,6.4,0.8,11.6,1.5c5.1,0.7,10.2,1.2,11.2,1.4c1,0.1,3.6,0.6,5.7,0.7c2.1,0.3,4.4,0.6,5,0.7c0.7,0.1,3.3,0.4,5.8,0.7
		c7,0.7,9.7,1.7,11.9,4.1c2.1,2.2,2.2,2.2,7,1.8c4.1-0.4,5.4-0.1,7.9,1.1c1.7,0.8,3.9,1.8,4.8,2.1c1.5,0.4,1.8,1,1.9,3.3
		c0.1,1.7,0.8,4.6,1.9,6.5c1,2.1,2.1,5.7,2.3,8.3c0.3,2.5,0.6,5.1,0.7,5.7c0.1,0.6,0.4,3.3,0.7,6.1c0.4,3.2,1.2,6.4,2.3,8.7
		c1.4,2.6,4.4,10.5,4.4,11.7C647.8,527.7,647.8,527.7,640.2,527.1z"/>
	<path id="US-NH" class="st0" d="M966.5,449.4c-0.8-0.1-1.7-0.6-1.7-0.8s-0.3-6.2-0.4-13.3l-0.4-12.9l2.6-2.9
		c1.8-2.1,2.5-3.3,2.2-4.6c-1.8-7.7-1.8-7.9-0.3-10.1c2.2-3.2,3-2.8,3.7,1.7c0.6,3,2.3,10.1,5.3,19.2c1.9,6.1,4.8,11.3,7.2,12.9
		c0.6,0.3,1,1.4,1,2.3c0,1.4-0.3,1.8-1.1,1.4c-0.7-0.3-2.2,0.7-4.4,2.8c-2.6,2.5-3.9,3.3-6.6,3.6c-1.8,0.3-3.9,0.6-4.4,0.7
		C968.6,449.7,967.3,449.5,966.5,449.4z"/>
	<path id="US-SNJ_1_" class="st0" d="M954.4,508.5c-0.1,1.1-0.4,2.9-0.7,4.1c-0.6,3.6-5.9,14.5-7.9,15.8c-2.2,1.1-1.7,1.3-5.4-0.7
		c-3.9-1.9-5.3-3.9-5.1-7.9c0.1-1.8,0-3.6-0.1-4s1.5-2.6,3.5-4.8c2.1-2.2,3.7-4.3,3.7-4.7L954.4,508.5z"/>
	<path id="US-NNJ_2_" class="st0" d="M942.4,504.1c0-0.4-1.2,0.4-2.9-0.8c-3.6-2.9-4.7-4.7-3.6-6.1c0.8-1,1-1.9,1.8-7.6
		c0.3-1.8,0.7-3.5,1-3.7c0.8-0.8,11.2,2.9,12.6,4.6c0.8,1.1,1.1,1.9,0.6,3.2c-0.7,1.9,0,6.2,1.7,10.1c0.7,1.5,1,1.4,0.8,2.5
		L942.4,504.1z"/>
	<path id="US-NM" class="st0" d="M508.8,666.5c-4-0.7-8.4-1.5-9.8-1.8c-3.7-0.6-18.8-3.2-21.7-3.7c-1.4-0.3-5.8-0.6-9.8-0.6h-7.2
		l-0.3,1.9c-0.3,2.3-1,2.3-6.2,1c-2.1-0.6-5.8-1.2-8.4-1.5s-5.5-0.7-6.4-0.8c-3.2-0.8-5.1,0.3-6.1,3.3c-0.8,2.8-1,2.9-4.1,2.9
		c-4.1,0-8.8-1.4-8.8-2.6c0-1,4.8-22.8,8.8-39.7c1.2-5.1,2.3-10.1,2.5-11.1c0.1-1,0.8-3.9,1.5-6.5c0.6-2.6,1.2-5.5,1.4-6.2
		c0.1-0.8,2.3-10.5,4.8-21.7l4.6-20.2l2.1,0.1c1.1,0,3.2,0.3,4.6,0.6c8.4,1.5,41,7.7,41.9,8c0.6,0.1,2.2,0.4,3.6,0.7
		c3.3,0.6,28.2,5.3,32.7,6.4c3.3,0.7,3.5,0.8,3,3c-0.3,1.2-0.6,3-0.7,4.1c-0.1,1-0.6,2.9-0.7,4.4c-0.7,3.7-1.1,6.4-1.9,11.6
		c-1,5.7-1.2,7.6-1.8,10.5c-0.3,1.2-2.3,14.1-4.7,28.6c-5.4,32.9-5.1,31-5.7,31C516.3,667.9,512.8,667.2,508.8,666.5z"/>
	<path id="US-LV_1_" class="st0" d="M376.3,513.6l-6.1,20.8c-0.4,1.1-0.8,3-1,4c-0.1,1-1.2,4.3-2.3,7.2c-2.2,5.8-1.9,5.5-7.2,4.8
		c-4.1-0.6-7.3,5.4-7.5,13.7c-0.6,5.3-1.5,5.3-4,0.4c-1.2-2.5-3.9-7.5-5.8-11.1s-5.8-11.1-8.7-16.6c-2.9-5.5-5.5-10.4-5.8-10.9
		c-0.3-0.4-4.1-7.5-6.6-12.4L376.3,513.6L376.3,513.6z"/>
	<path id="US-NV_1_" class="st0" d="M320,511c0,0-2.8-5.4-3.7-7.1c-1.1-2.2-3.6-6.6-5.4-10.1c-1.8-3.3-4.6-8.6-6.1-11.6
		c-4.8-9.1-5.1-7,5-35.7c5-14,9.3-25.6,9.7-26c0.7-0.7,7.2,1.5,27.2,8.8c5.5,2.1,15.3,5.4,21.7,7.3s15.1,4.7,19.3,6.1
		c4.3,1.2,7.9,2.5,8,2.6c0.2,0.2-11.2,39.2-18.8,65.6H320V511z"/>
	<path id="US-SNY_2_" class="st0" d="M953.3,470.5c-0.3,5.1,0,5.9,0.6,8.1c0.6,1.8,1,4.1,1,5.3s0.3,1.9,0.7,1.9s0.4,0.7,0,1.8
		s-0.4,1.9,0,2.2c0.4,0.3,0.7,0.1,0.7-0.3c0-0.8,3.5-2.3,6.5-2.9c1.4-0.3,3.5-1.1,4.7-1.9c3.2-2.3,7-3.6,7.7-2.3
		c0.4,0.6-0.1,1.5-1.4,2.6c-1.1,1-3.2,2.9-4.6,4.1c-3,3.2-14.2,8.2-14.8,6.8c-0.1-0.4-0.1-1.8,0.1-3c0.6-3.6-1.9-5.7-10.1-8.3
		c-7.3-2.3-8-3.5-14.1-10.7L953.3,470.5z"/>
	<path id="US-NNY_1_" class="st0" d="M927.7,471.4l-12.3,1.9c-6.6,1-13,2.1-14.1,2.2c-1,0.1-8.3,1.2-16.2,2.5
		c-7.9,1.2-15.1,2.3-15.6,2.6c-0.8,0.3-1.2-0.3-1.7-1.2c-0.4-1.5,1.7-4.4,8-11.2c1.2-1.4,2.3-2.9,2.3-3.2s-0.8-2.3-1.8-4.3
		c-2.1-4.3-2.2-5-0.6-5.1c0.7,0,1.8-0.4,2.5-1c1-0.7,4.1-1,11.5-1.1c11.1-0.1,12.3-0.4,15.8-3.3c3.7-3.2,4.6-6.1,3.5-11.2l-1-4.3
		l4.3-4.8c2.3-2.6,5-5.9,5.8-7.2c0.8-1.2,3.3-3.6,5.4-5.3l3.9-3l5.9,0.1c3.3,0.1,6.6-0.1,7.6-0.4c1.2-0.4,1.7-0.1,2.3,1.8
		c1.1,3.6,1.7,7,1.8,12.6c0.1,4.3,0.4,5.5,2.1,7.3c3.6,4.4,6.8,20.5,6.2,32.1L927.7,471.4z"/>
	<path id="US-OH" class="st0" d="M833.1,552.1c-1.2-1.7-1.8-1.7-7.3-1.2c-7.3,0.6-13-0.7-15.6-3.2c-1.2-1.2-3-1.9-5.3-2.2
		c-3.2-0.4-3.3-0.4-3.3-3c0-1.5-0.1-5.3-0.4-8.4c-0.1-3.2-0.4-9.8-0.7-14.5c-0.3-4.8-0.6-12-0.8-16c-0.4-5.8-0.3-7.3,0.6-7.3
		c0.6-0.1,1.8-0.1,2.8-0.3c1-0.1,5-0.4,9-0.7s7.3-0.6,7.6-0.6s2.2,0.8,4.7,1.9c4.6,2.2,8.6,2.5,10.4,0.8c0.7-0.6,2.6-1.5,4.4-2.2
		s3.9-1.8,4.7-2.5c4.7-4.3,11.7-8.7,11.9-7.6c1.2,11.3,1.1,28.1-0.4,39.1c-0.1,0.6-0.8,2.9-1.5,5c-1.1,3.2-1.9,4.3-4.6,5.7
		c-3.6,2.1-5.7,4.7-6.2,7.9c-0.4,1.8-1,2.3-2.6,2.8c-1.5,0.4-2.2,1-2.5,2.3c-0.6,2.5-1.9,5.4-2.9,5.7
		C834.8,553.7,833.8,553,833.1,552.1z"/>
	<path id="US-OK" class="st0" d="M649.6,647.7c-3.2-1.7-6.1-2.8-7.6-2.8c-1.4,0-7.6,0.3-14.1,0.4c-9.8,0.4-12,0.3-14.8-0.8
		c-1.8-0.7-4.4-1.4-5.8-1.7c-1.5-0.3-3.7-1.5-5.7-3.2c-2.3-2.1-3.9-2.9-6.5-3.2c-6.8-0.8-9.8-1.8-11.7-3.9c-1.1-1.2-3.6-2.6-6.1-3.3
		l-4.1-1.2l0.4-3.6c0.3-1.9,0.6-5.9,0.8-8.7s0.6-6.2,0.7-7.6s0.6-5.1,0.7-8.3s0.6-6.6,0.8-7.7c0.4-2.2-0.1-2.6-3.5-3.2
		c-3.9-0.6-24.2-3.2-31.4-4.1c-9-1.1-8.6-0.8-8-4.7c0.3-1.8,0.6-3.5,0.7-3.6s2.5,0.3,5.3,0.8c2.8,0.6,7.6,1.1,10.9,1.4
		c3.2,0.3,7.2,0.6,9,0.8c1.8,0.1,5.4,0.6,7.9,0.7s6.2,0.6,7.9,0.7c1.8,0.1,5.4,0.6,7.9,0.7c2.5,0.3,6.2,0.6,7.9,0.7
		c1.8,0.1,5.7,0.6,8.7,0.7c3,0.3,6.5,0.6,7.9,0.7c1.4,0.1,5,0.6,7.9,0.7c3,0.3,6.5,0.6,7.9,0.7c1.4,0.1,5.3,0.6,8.7,0.7
		c3.3,0.3,6.9,0.6,7.9,0.7s4.6,0.6,7.9,0.7c3.3,0.3,6.2,0.6,6.2,0.6c0.4,0.4,1.1,21.4,1,29.3c-0.3,19.2-0.6,32.6-0.8,32.7
		C654.9,650.3,652.4,649.2,649.6,647.7z"/>
	<path id="US-OR" class="st0" d="M336.2,423.4c-10.4-3.7-22.2-8-26.4-9.7c-11.5-4.3-39.9-14.5-45.5-16.4c-1.8-0.6-3.3-1.2-3.5-1.2
		c-0.1-0.1,0.1-1.2,0.6-2.6c0.4-1.2,1-3.7,1.1-5.3c0.8-7,2.5-10.6,7.6-16.2c2.6-3,6.4-7.7,8-10.5c3.5-5.8,17.4-33.9,17.4-35.1
		c0-0.6,0.6-0.6,1.2-0.3c0.7,0.3,2.3,0.8,3.6,1.1c2.2,0.7,5.9,4.1,6.1,5.9c0.1,0.4,0.3,1.1,0.3,1.7c0.1,0.4,0.3,1.9,0.3,3.3
		c0.1,3.6,2.1,5.3,7.5,6.4c2.5,0.6,7.3,2.2,10.6,3.6c3.3,1.5,7.6,2.9,9.4,3.3c1.8,0.3,3.7,0.7,4.4,0.7c0.6,0.1,4.3,0.4,8.3,0.7
		c8.3,0.6,10.4,1.1,23.1,5.7c5.1,1.8,9.4,3.3,9.4,3.3s0.1,0.4,0.3,0.8c0.1,0.6,0.6,2.9,1,5.4l0.8,4.6l-2.6,2.9
		c-1.5,1.7-2.6,3.2-2.6,3.5c0,1.1-3.9,5-6.2,6.1c-2.6,1.2-3.3,3.3-2.5,8c0.7,4.8,0.7,4.8-1.7,7c-1.7,1.5-2.2,2.8-2.3,5.4
		c-0.3,3.2-7.3,24.7-8.2,24.7C355.2,430.3,346.6,427.3,336.2,423.4z"/>
	<path id="US-EPA" class="st0" d="M898.1,478.9l28.3-4.6l2.5,2.8c1.4,1.5,2.5,3,2.5,3.5c0,0.4,1.1,1.5,2.5,2.3
		c1.4,1,2.3,1.8,2.2,2.1c-0.4,0.4-1,3.2-1.7,8c-0.3,1.9-0.7,3.6-1.1,3.9c-1.7,1-0.6,4.3,2.6,7.2l3.2,3l-4.3,4.4
		c-2.3,2.3-5.3,4.7-6.2,5.1c-1.1,0.4-6.2,1.5-11.3,2.3s-16.2,2.8-17,2.9L898.1,478.9z"/>
	<path id="US-WPA_1_" class="st0" d="M898.1,522.1c-1.9,0.3-4,0.7-6.1,1.1c-16.9,2.9-15.8,2.8-22.5,3.3c-5,0-5.8-0.1-6.4-1.4
		c-0.4-0.7-1.1-3.7-1.7-6.6c-1.1-6.1-1.1-6.4-1.4-6.6c-0.3-0.3-0.6-2.9-1-13.1c-0.3-5.5-0.6-11.3-0.7-12.7c-0.1-2.1,0.1-2.8,1.7-3.7
		c1-0.7,2.6-1.8,3.5-2.3c1.7-1.1,1.7-1.1,2.1,1.1l0.4,2.3l3.9-0.6c2.2-0.3,4.7-0.6,5.5-0.7s3.6-0.6,6.2-1c2.5-0.4,5.9-1,7.6-1.1
		c0.8-0.1,3.2-0.5,6.5-1L898.1,522.1z"/>
	<path id="US-RI" class="st0" d="M977.5,471.8c-0.7-2.6-1.5-5.7-1.7-6.5c-0.4-1.5-0.1-1.7,2.5-1.7s3,0.3,5.3,3.7
		c1.8,2.9,2.2,3.9,1.7,4.8c-0.7,1.1-5.1,4.4-5.9,4.4C979.1,476.6,978.4,474.4,977.5,471.8z"/>
	<path id="US-SC" class="st0" d="M873.1,674.1c-1-0.6-2.6-2.5-3.6-4.3s-1.9-3.3-2.2-3.3c-1,0-4.3-3.9-4.3-5.1c0-0.7-1.2-2.8-2.6-4.6
		c-1.4-1.8-3.7-4.6-4.8-6.1s-3.9-4.3-6.1-5.9c-2.2-1.8-5.7-5.3-7.6-7.7s-4.8-5.3-6.2-5.9c-3.3-1.8-4.3-3-3.7-4.8
		c0.4-1.8,3.9-3.6,12.3-6.2c8.7-2.9,24-2.1,24,1.1c0,0.6,3,0.7,9,0.6c7-0.1,9.3,0,10.2,0.8c0.7,0.6,1.8,1.5,2.3,1.9
		c0.6,0.4,3,2.5,5.5,4.4s5.8,4.3,7.6,5.1s3.3,1.8,3.6,1.9c0.1,0.1-1,1.8-2.6,3.7c-3.6,4.3-4.3,5.5-4.8,9.3c-0.4,1.9-1.2,3.7-3.2,5.5
		c-1.5,1.4-3.9,4.1-5.5,5.9c-1.7,1.9-5.7,5.9-9,9.1C875.2,674.8,874.7,674.9,873.1,674.1z"/>
	<path id="US-SD" class="st0" d="M629.5,473.3c-3-1.5-4.3-1.8-7.9-1.5c-4.1,0.3-4.6,0.1-7.3-2.1c-3-2.3-5.4-3-16.2-4.3
		c-2.2-0.3-4.4-0.6-5-0.7s-3-0.4-5.4-0.7c-2.3-0.3-5.1-0.6-6.1-0.7s-3.3-0.4-5-0.7c-1.8-0.3-4.6-0.6-6.1-0.8
		c-1.7-0.3-6.5-0.8-10.9-1.5s-9.9-1.2-12.3-1.5c-9.9-1.1-10.9-1.4-10.6-2.9c0.1-1.5,4.3-26,4.8-29.2c0.3-1,0.6-2.9,0.7-4.4
		c0.3-1.4,1-5.9,1.7-10.1c1.2-7.3,1.4-7.6,3-7.5c1.9,0.1,10.9,1,12.9,1.4c1.8,0.3,7.2,1,11.3,1.5c1.9,0.3,4.4,0.6,5.4,0.7
		s3.7,0.6,6.1,0.7c2.3,0.3,4.8,0.6,5.4,0.7c0.6,0.1,5.3,0.8,10.5,1.5c9.5,1.1,28.6,3.6,32.5,4.3c1.1,0.1,3,0.4,4.1,0.4
		c1.8,0.1,1.9,0.3,1.2,1.5c-0.6,1-0.4,2.5,0.7,5.9c1,3,1.2,5.5,1.1,7.5c-0.7,4.7-1.1,10.9-1.5,20.9c-0.3,5.1-0.7,9.5-1,9.8
		c-0.4,0.3-0.7,3.5-0.6,7.2C635.3,476.2,635.1,476.2,629.5,473.3z"/>
	<path id="US-TN" class="st0" d="M724.4,625.2c0-2.1,1.7-6.2,3.5-9.1c2.6-4.1,4.4-8.8,5-12.6c0.4-3.5,1.8-5,4.1-5.1
		c0.8-0.1,5.7-0.4,10.6-0.6c7.6-0.4,9.1-0.7,10.1-1.8c1-1.2,2.6-1.4,19.2-1.8c47.9-1.1,58.9-1.5,68.4-2.2c2.6-0.3,4.8-0.1,4.8,0.1
		c0,1-1.8,3.6-3.2,4.8c-0.8,0.7-3.9,2.3-6.8,3.7c-2.9,1.4-7.2,4.1-9.4,6.1c-2.2,1.9-5.7,4.3-7.5,5c-1.8,0.8-4.3,2.5-5.4,4
		c-1.1,1.5-3.7,3.6-5.8,5c-1.9,1.2-3.7,2.5-4,2.8c-0.8,1-8.8,1.4-42.6,1.8c-19.3,0.3-36.3,0.6-38.1,0.7
		C725.4,626,724.4,625.7,724.4,625.2z"/>
	<path id="US-TX" class="st0" d="M596.7,800c-3.3-2.3-4.4-2.9-7.5-2.9c-2.8,0-4.3-0.6-7.3-2.5c-2.1-1.4-5.1-2.9-6.6-3.5
		s-3.3-1.5-3.7-2.2s-1.4-1.7-1.9-2.2c-1-1-2.3-6.5-1.8-6.8c0.1-0.1-0.6-1-1.7-1.9c-1.7-1.7-1.9-2.5-2.3-7.9s-0.8-6.6-3.5-11.1
		c-4.7-8-9.7-18.2-10.2-21.1c-0.7-3.9-4.4-10.8-7-13c-1.2-1.1-2.9-3.2-3.6-4.7c-1.1-2.2-1.9-2.8-4.1-3.2c-1.5-0.3-4.6-0.8-6.6-1.2
		c-5.9-1.2-10.6-0.1-12.4,3.2c-0.7,1.4-1.2,2.9-1.2,3.3s-1.1,2.1-2.3,3.5c-1.9,2.1-3,2.5-4.8,2.5c-3.5-0.1-4.3-0.6-9.7-5.4
		c-7.3-6.5-11.1-11.6-11.3-15.6c-0.1-1.8-0.8-4.7-1.5-6.6c-0.7-1.9-1.2-4.4-1.2-5.7c0-2.2-1.9-4.7-8.3-11.2
		c-1.7-1.7-3.5-4.1-4.1-5.7c-0.7-1.5-1.9-3-2.6-3.5c-0.7-0.4-1.7-1.8-2.2-3c-0.6-1.2-1.7-3.2-2.6-4.3c-1.1-1.2-1.7-2.5-1.5-3.6
		c0.3-1.7,0.6-1.8,4.7-1.8c2.5,0,7.7,0.6,11.9,1.2c7.9,1.4,10.5,1.8,14.8,2.5c1.5,0.3,4,0.7,5.7,1c1.7,0.4,4.6,0.8,6.5,1.1
		s3.7,0.6,4,0.7c1,0.7,9.3,1.1,9.3,0.6c0-0.4,0.6-3.3,1.1-6.8c0.6-3.3,1.2-7.2,1.4-8.3c0.1-1.1,1.8-11.3,3.6-22.4
		c1.8-11.1,3.5-21.3,3.7-22.7c0.3-1.2,0.6-3.2,0.7-3.9c0.1-0.8,0.4-2.6,0.7-4.1c0.3-1.4,0.6-3.3,0.7-4.4s0.6-3,0.8-4.7
		c0.3-1.7,0.6-3.5,0.7-4c0.1-0.6,0.3-1.5,0.3-1.9c0.1-0.6,1.8-0.6,6.2,0.1c3.5,0.6,8.2,1.1,10.6,1.4c2.5,0.3,5,0.6,5.7,0.7
		c0.6,0.1,2.9,0.6,5,0.7c2.2,0.3,5.9,0.7,8.3,1.1c2.3,0.4,4.6,0.7,5,0.7s0.4,2.5,0.1,5.7c-1,11.9-2.6,29.4-2.9,30.7
		c-0.4,1.7,0.6,2.2,5.4,3.7c2.3,0.8,4.6,2.1,5.7,3.3c1.7,2.1,5.8,3.5,11.6,4c3.5,0.3,7.2,2.3,8.6,4.6c0.6,1,1.7,1.5,2.9,1.5
		c1.1,0,3.7,0.7,5.9,1.5c3.6,1.4,5.1,1.5,18.8,1.2c16.2-0.3,15.8-0.3,22.9,4.6c1.8,1.1,4.3,2.5,5.7,2.9l2.5,0.7v15.8v15.8l2.1,4.7
		c1.1,2.5,2.5,6.6,3,9c0.8,4,0.7,4.7-0.6,7.2c-0.8,1.5-1.7,5-1.9,7.5c-0.3,2.5-1.1,6.4-1.8,8.3s-1.5,4.7-1.8,5.9
		c-0.4,1.8-0.8,2.3-2.1,2.3c-2.9,0-6.6,2.1-9.4,5c-2.8,3-10.2,7.5-19.1,11.6c-4.8,2.2-9.1,4.7-10.1,5.8c-0.3,0.3-1.9,1.7-4,3.2
		c-4.6,3.6-6.8,6.1-11.1,12.2c-3.2,4.7-3.3,5-3.2,9.8c0.1,2.6,0.4,5.9,0.8,7c0.7,2.5,1.5,14,1,15.3C602,803.6,600.9,803.1,596.7,800
		z"/>
	<path id="US-UT" class="st0" d="M398.7,446.6c-0.6,0-0.8,0.3-1,0.8c-0.3,0.7-1.8,6.2-3.6,12.4c-1.8,6.2-4.4,15.3-5.9,20.2
		c-1.5,5-3.7,13-5.1,17.7s-3.6,12.6-5,17.3c-1.4,4.7-2.9,9.7-3.2,10.9c-0.4,1.1-1.2,4.4-2.1,7.2c-0.8,2.8-1.4,5.1-1.2,5.1
		c0.1,0.1,15.8,4,34.8,8.8c34.1,8.6,36.5,9.1,36.5,8.6c0-0.1,2.2-10.5,5.1-22.9s5.3-23.5,5.5-24.5c0.3-1,1.2-6.1,2.5-11.5
		c1.2-5.3,2.3-10.5,2.5-11.5c0.3-1,0.6-2.1,0.7-2.3c0.1-0.3-1.1-0.7-2.8-1c-5.9-1-25-5.3-25.8-5.8c-0.4-0.3-0.7-1-0.4-1.5
		c0.6-1.7,4.3-14.9,4.3-16c0.1-0.8-12-5-34.4-11.7C399.4,446.8,399,446.6,398.7,446.6z M407.7,456.6c0.3,0,0.6,0.1,1,0.1
		c2.6,0.7,5.3,4,5.3,6.6c0,2.5,1.4,3.2,2.9,1.2c1.1-1.5,2.9-0.1,2.3,1.8c-0.3,0.8,0,2.3,0.4,3.7c0.8,2.5,0.1,3.9-2.3,5
		c-4.1,1.5-4.4,1.5-6.2-0.6c-3.7-4-4.8-7.5-4.4-13.1C406.9,457.7,406.9,456.7,407.7,456.6z"/>
	<g id="US-VA">
		<path class="st0" d="M834.1,584.7c5.8-7,9.4-10.1,11.2-9.4c0.7,0.3,1.1,0.7,1.1,1c0,0.4,1.1,0.8,2.5,1c1.9,0.4,4.6-0.3,10.5-2.2
			c7.3-2.3,8.2-2.9,9-4.8c0.6-1.2,1.5-3,2.3-4s2.5-4.6,3.7-7.9s2.6-6.4,2.9-6.6c0.3-0.3,1.8-0.7,3.3-1c4.8-0.7,5.3-1,5.8-4.3
			c0.4-2.5,1.2-3.6,4.4-6.5c2.2-1.9,3.9-3.7,3.9-4c-0.3-1.9,0.1-2.2,1.9-1.5c2.9,1.1,5.3,0.8,6.1-0.7c0.7-1.5,0.8-1.5,2.2,0
			c0.8,0.8,1.8,1.5,2.1,1.5c0.4,0,1.8,0.6,3.3,1.1c2.6,1.1,2.6,1.1,1.5,2.9c-1.1,1.7-1.1,2.1,0.1,4.7c1,2.3,2.1,3.3,5.7,5
			c2.3,1.1,5.3,2.3,6.4,2.6c2.2,0.6,3.7,2.6,2.6,3.6c-0.4,0.4,0.1,1.7,1.5,3.2c1.7,1.9,2.1,3.2,2.2,5.9c0,2.9,0.4,3.7,2.2,5.4
			c4.6,4.1,5,4.6,5,6.1c0,0.8-0.4,1.5-0.8,1.5c-1.2,0.1-3.9,0.6-9.5,1.8c-5,1.1-25.3,4.3-32.9,5c-2.2,0.3-4.4,0.6-5,0.7
			c-0.6,0.1-2.9,0.4-5.1,0.7c-2.2,0.3-4.7,0.6-5.4,0.7c-2.3,0.4-7.6,1.1-15.8,1.9c-4.4,0.4-9.3,0.8-10.9,1.1s-6.8,0.6-11.6,0.7
			c-4.7,0.3-9.3,0.6-9.9,0.8C829.6,590.6,831.2,588.3,834.1,584.7z"/>
		<path class="st0" d="M934.2,567.5c-0.6-1,0.4-7,1.7-10.2c0.6-1.5,0.8-3.3,0.7-4.1c-0.4-1.5,1.1-2.2,4.4-2.2c1.2,0,1.7,0.3,1.1,1.2
			c-0.3,0.7-1.1,2.6-1.7,4.6c-0.7,1.8-1.8,3.7-2.3,4.6c-1.5,1.5-1.7,2.5-0.4,2.9c0.6,0.3,0.4,0.8-0.4,2.2
			C935.7,568.4,934.8,568.8,934.2,567.5z"/>
	</g>
	<path id="US-VT" class="st0" d="M954.1,449.8c0-3-3.6-13.8-5-15.3c-1.1-1.1-1.5-2.9-1.8-6.9c-0.1-3-0.6-6.2-0.7-7.2
		c-0.1-1-0.7-3-0.8-4.4l-0.4-2.6l6.8-1.5c3.7-0.8,8.3-1.8,10.1-1.9l3.3-0.4l0.6,3.3c0.4,3,0.3,3.6-1.8,5.9l-2.2,2.5l0.3,14.6
		c0.3,12.7,0.1,14.6-0.8,14.8c-0.6,0-2.5,0.3-4.1,0.4C954.2,451.5,954.1,451.3,954.1,449.8z"/>
	<path id="US-WA" class="st0" d="M369,355.6c-10.4-3.7-15.5-4.8-25.4-5.5c-7.6-0.6-11.7-1.5-17.8-4.3c-3-1.2-7.5-2.9-10.1-3.5
		c-2.5-0.6-5.1-1.5-5.7-2.1c-0.6-0.7-0.8-2.8-0.8-4.8c0-3.3-0.4-4-3-6.9c-2.2-2.3-4-3.5-6.4-4.1l-3.3-0.8l0.6-2.6
		c0.7-3.3,4-23.8,5-31.2c0.4-2.9,1.1-5.7,1.7-5.9c1.1-0.7,3,0.4,8.2,4.8c3.2,2.6,11.6,6.4,14.4,6.5c0.4,0,0.7-1,0.6-2.2
		c-0.1-1.8,1.9-8.4,3.2-10.2c0.1-0.1,2.1,0.6,4.4,1.5c2.3,1,16.9,6.5,32.3,12.4c15.5,5.9,28.2,10.8,28.5,10.9c0.1,0.1-1.2,4.4-3,9.4
		c-1.8,5.1-5.1,14.4-7.5,20.7c-2.9,7.9-4.3,13.1-4.6,16.7l-0.4,5.1L369,355.6z"/>
	<path id="US-WI" class="st0" d="M726.9,480.9c-14.4-0.6-14.8-0.7-15.8-9.8c-1.1-9.3-3.9-17.8-6.4-19.1c-0.8-0.4-4.8-3.7-8.7-7.3
		l-7.2-6.5v-8.8c0-7.6,0.3-9,1.2-9.7c4.3-2.5,5.4-4.1,5.5-7.5c0.1-5.4,0.8-7.6,2.5-7.7c2.6-0.4,13.7-3.9,14.4-4.7
		c1.1-1.1,1.8-0.8,1.5,1.1c-0.1,1.5,0.3,2.1,1.7,2.5c2.2,0.8,4.8,3.5,5.5,5.4c0.4,1.2,1.9,1.9,7.5,3.5c8.6,2.3,18.7,6.1,20.9,7.3
		c2.3,1.5,6.5,8.8,7.2,12.3c0.3,1.7,0.8,3,1.4,3c1.4,0,4.1-2.9,5.3-5.5c1.2-3,2.9-3.3,2.1-0.4c-0.3,1.1-0.6,2.6-0.4,3.6
		c0.1,0.8-0.3,1.7-0.6,1.7c-1.5,0-2.9,2.3-3.6,6.4c-1,5.5-2.2,9.7-3,11.3c-1.9,3.6-2.6,13.1-1.7,23.8l0.6,5.7l-9.3-0.3
		C741.9,481.5,732.8,481.2,726.9,480.9z"/>
	<path id="US-WV" class="st0" d="M849.5,574.7c-4.7-1.8-12.9-10.9-13.4-14.9c-0.3-1.7,0.3-3,1.8-5c1.1-1.5,2.1-3.5,2.1-4.4
		c0-1.1,0.7-1.9,2.5-2.6c1.9-0.8,2.5-1.5,2.9-3.6c0.6-3,2.6-5.7,6.4-7.7c3.6-2.1,6.2-8.3,6.2-14.4c0-5.7,1.1-5.9,1.8-0.6
		c0.7,6.5,1.8,7.3,9.9,7l6.6-0.3l0.8,3.6c0.7,3.2,1,3.6,2.5,3.5c1-0.1,3.6-1.5,5.8-3c4.8-3.5,11.7-5.1,14.6-3.7
		c2.1,1,2.2,1.5,0.8,3.5c-1,1.2-1.1,1.2-4.1-0.3c-3.5-1.8-4.1-1.5-4.7,1.9c-0.4,2.3-3.5,5.7-6.2,6.8c-0.8,0.3-1.4,1.7-1.8,3.9
		c-0.6,3.6-0.7,3.7-5.3,4.3c-1.7,0.1-3.2,0.4-3.3,0.6s-1.4,3.3-2.9,7.2c-1.5,3.7-3.7,8.3-4.8,10.1s-2.1,3.5-2.1,3.7
		c0,0.4-4.1,2.1-11.6,4.6C852.2,575,850.4,575.1,849.5,574.7z"/>
	<path id="US-WY" class="st0" d="M520,493.2c-3.3-0.7-8.4-1.8-11.2-2.5c-2.8-0.6-10.5-2.2-17.3-3.7c-14.1-3-43.7-9.3-51.7-11.1
		c-3-0.7-5.8-1.1-6.4-1.1s-0.7-0.6-0.6-1.1c0.3-0.7,0.8-3.3,1.5-5.8s1.5-5.5,1.8-6.5c0.4-1,0.8-2.8,1-4c0.4-2.2,2.5-11.6,7.6-32.5
		c1.5-6.4,3.2-13.4,3.6-15.6s1.2-4.6,1.8-5.3c1-1.4,0.8-1.4,36.6,6.1c11.1,2.3,28.3,5.9,35.8,7.5c0.4,0.1,4.4,1,8.8,1.9l8.2,1.8
		l-0.4,2.5c-0.1,1.4-2.3,14.2-4.8,28.6c-2.5,14.2-4.6,26.8-4.7,27.8c-0.6,3.2-1,6.1-1.8,10.1c-0.4,2.1-0.7,4-0.7,4.1
		C527.4,494.7,526.9,494.7,520,493.2z"/>
</g>
<g id="">
	<path id="" class="st1" d="M241.5,608.9v131 M16.6,536.5H170l71.3,72.5"/>
</g>
</svg>
